<mxfile host="app.diagrams.net" agent="Mozilla/5.0 (Windows NT 10.0; Win64; x64) AppleWebKit/537.36 (KHTML, like Gecko) Chrome/134.0.0.0 Safari/537.36" version="26.1.3">
  <diagram name="第 1 页" id="Wdx_ElfIQ2kTfjwmgPK6">
    <mxGraphModel dx="2157" dy="3011" grid="1" gridSize="10" guides="1" tooltips="1" connect="1" arrows="1" fold="1" page="1" pageScale="1" pageWidth="827" pageHeight="1169" math="0" shadow="0">
      <root>
        <mxCell id="0" />
        <mxCell id="1" parent="0" />
        <mxCell id="z1ZTVlwwsorMF4e4j1b6-2" value="&lt;div&gt;&lt;span style=&quot;background-color: initial;&quot;&gt;drm_atomic_state_alloc&lt;/span&gt;&lt;br&gt;&lt;/div&gt;" style="text;html=1;align=center;verticalAlign=middle;resizable=0;points=[];autosize=1;strokeColor=none;fillColor=none;" parent="1" vertex="1">
          <mxGeometry x="-413" y="111.25" width="150" height="30" as="geometry" />
        </mxCell>
        <mxCell id="z1ZTVlwwsorMF4e4j1b6-13" style="edgeStyle=orthogonalEdgeStyle;rounded=0;orthogonalLoop=1;jettySize=auto;html=1;entryX=0.5;entryY=0;entryDx=0;entryDy=0;" parent="1" source="z1ZTVlwwsorMF4e4j1b6-7" target="z1ZTVlwwsorMF4e4j1b6-12" edge="1">
          <mxGeometry relative="1" as="geometry">
            <Array as="points">
              <mxPoint x="427" y="155" />
              <mxPoint x="692" y="155" />
            </Array>
          </mxGeometry>
        </mxCell>
        <mxCell id="3mboC_igE18zgCTg4L_F-29" style="edgeStyle=orthogonalEdgeStyle;rounded=0;orthogonalLoop=1;jettySize=auto;html=1;exitX=0.5;exitY=1;exitDx=0;exitDy=0;entryX=0.5;entryY=0;entryDx=0;entryDy=0;" parent="1" source="z1ZTVlwwsorMF4e4j1b6-7" target="z1ZTVlwwsorMF4e4j1b6-10" edge="1">
          <mxGeometry relative="1" as="geometry" />
        </mxCell>
        <mxCell id="z1ZTVlwwsorMF4e4j1b6-7" value="drm_atomic_commit" style="text;whiteSpace=wrap;html=1;" parent="1" vertex="1">
          <mxGeometry x="367" y="110" width="120" height="25" as="geometry" />
        </mxCell>
        <mxCell id="inVT9cI3KzjuQ4xYqi-m-4" style="edgeStyle=orthogonalEdgeStyle;rounded=0;orthogonalLoop=1;jettySize=auto;html=1;exitX=0.5;exitY=1;exitDx=0;exitDy=0;entryX=0.5;entryY=0;entryDx=0;entryDy=0;" parent="1" source="z1ZTVlwwsorMF4e4j1b6-10" target="inVT9cI3KzjuQ4xYqi-m-3" edge="1">
          <mxGeometry relative="1" as="geometry" />
        </mxCell>
        <mxCell id="z1ZTVlwwsorMF4e4j1b6-10" value="drm_atomic_check_only" style="text;whiteSpace=wrap;html=1;" parent="1" vertex="1">
          <mxGeometry x="145.5" y="175" width="140" height="30" as="geometry" />
        </mxCell>
        <mxCell id="inVT9cI3KzjuQ4xYqi-m-26" style="edgeStyle=orthogonalEdgeStyle;rounded=0;orthogonalLoop=1;jettySize=auto;html=1;exitX=0.5;exitY=1;exitDx=0;exitDy=0;entryX=0.5;entryY=0;entryDx=0;entryDy=0;" parent="1" source="z1ZTVlwwsorMF4e4j1b6-12" target="inVT9cI3KzjuQ4xYqi-m-25" edge="1">
          <mxGeometry relative="1" as="geometry" />
        </mxCell>
        <mxCell id="z1ZTVlwwsorMF4e4j1b6-12" value="config-&amp;gt;funcs-&amp;gt;atomic_commit" style="text;whiteSpace=wrap;html=1;fontColor=#FF3333;" parent="1" vertex="1">
          <mxGeometry x="597" y="175" width="190" height="30" as="geometry" />
        </mxCell>
        <mxCell id="3mboC_igE18zgCTg4L_F-28" style="edgeStyle=orthogonalEdgeStyle;rounded=0;orthogonalLoop=1;jettySize=auto;html=1;exitX=0.5;exitY=1;exitDx=0;exitDy=0;entryX=0.5;entryY=0;entryDx=0;entryDy=0;" parent="1" source="59reyXUg0gu2296uByz6-4" target="3mboC_igE18zgCTg4L_F-27" edge="1">
          <mxGeometry relative="1" as="geometry" />
        </mxCell>
        <mxCell id="59reyXUg0gu2296uByz6-4" value="drm_atomic_connector/crtc/plane_set_property" style="text;whiteSpace=wrap;html=1;" parent="1" vertex="1">
          <mxGeometry x="-278" y="245" width="260" height="30" as="geometry" />
        </mxCell>
        <mxCell id="inVT9cI3KzjuQ4xYqi-m-6" style="edgeStyle=orthogonalEdgeStyle;rounded=0;orthogonalLoop=1;jettySize=auto;html=1;exitX=0.5;exitY=1;exitDx=0;exitDy=0;entryX=0.5;entryY=0;entryDx=0;entryDy=0;" parent="1" source="inVT9cI3KzjuQ4xYqi-m-3" target="inVT9cI3KzjuQ4xYqi-m-5" edge="1">
          <mxGeometry relative="1" as="geometry" />
        </mxCell>
        <mxCell id="inVT9cI3KzjuQ4xYqi-m-3" value="&lt;span style=&quot;forced-color-adjust: none; font-family: Helvetica; font-size: 12px; font-style: normal; font-variant-ligatures: normal; font-variant-caps: normal; letter-spacing: normal; orphans: 2; text-indent: 0px; text-transform: none; widows: 2; word-spacing: 0px; -webkit-text-stroke-width: 0px; white-space: nowrap; background-color: rgb(251, 251, 251); text-decoration-thickness: initial; text-decoration-style: initial; text-decoration-color: initial;&quot;&gt;&lt;font style=&quot;&quot; color=&quot;#ff3333&quot;&gt;config-&amp;gt;funcs-&amp;gt;atomic_check&lt;/font&gt;&lt;/span&gt;" style="text;html=1;align=center;verticalAlign=middle;whiteSpace=wrap;rounded=0;" parent="1" vertex="1">
          <mxGeometry x="130.5" y="225" width="170" height="30" as="geometry" />
        </mxCell>
        <mxCell id="inVT9cI3KzjuQ4xYqi-m-9" style="edgeStyle=orthogonalEdgeStyle;rounded=0;orthogonalLoop=1;jettySize=auto;html=1;exitX=0.5;exitY=1;exitDx=0;exitDy=0;entryX=0.5;entryY=0;entryDx=0;entryDy=0;" parent="1" source="inVT9cI3KzjuQ4xYqi-m-5" target="inVT9cI3KzjuQ4xYqi-m-7" edge="1">
          <mxGeometry relative="1" as="geometry" />
        </mxCell>
        <mxCell id="inVT9cI3KzjuQ4xYqi-m-10" style="edgeStyle=orthogonalEdgeStyle;rounded=0;orthogonalLoop=1;jettySize=auto;html=1;exitX=0.5;exitY=1;exitDx=0;exitDy=0;entryX=0.5;entryY=0;entryDx=0;entryDy=0;" parent="1" source="inVT9cI3KzjuQ4xYqi-m-5" target="inVT9cI3KzjuQ4xYqi-m-8" edge="1">
          <mxGeometry relative="1" as="geometry" />
        </mxCell>
        <mxCell id="3mboC_igE18zgCTg4L_F-2" style="edgeStyle=orthogonalEdgeStyle;rounded=0;orthogonalLoop=1;jettySize=auto;html=1;exitX=0.5;exitY=1;exitDx=0;exitDy=0;entryX=0.5;entryY=0;entryDx=0;entryDy=0;" parent="1" source="inVT9cI3KzjuQ4xYqi-m-5" target="3mboC_igE18zgCTg4L_F-1" edge="1">
          <mxGeometry relative="1" as="geometry" />
        </mxCell>
        <mxCell id="inVT9cI3KzjuQ4xYqi-m-5" value="drm_atomic_helper_check" style="text;whiteSpace=wrap;html=1;" parent="1" vertex="1">
          <mxGeometry x="145.5" y="275" width="140" height="30" as="geometry" />
        </mxCell>
        <mxCell id="inVT9cI3KzjuQ4xYqi-m-16" style="edgeStyle=orthogonalEdgeStyle;rounded=0;orthogonalLoop=1;jettySize=auto;html=1;exitX=0.5;exitY=1;exitDx=0;exitDy=0;entryX=0.5;entryY=0;entryDx=0;entryDy=0;" parent="1" source="inVT9cI3KzjuQ4xYqi-m-7" target="inVT9cI3KzjuQ4xYqi-m-15" edge="1">
          <mxGeometry relative="1" as="geometry" />
        </mxCell>
        <mxCell id="inVT9cI3KzjuQ4xYqi-m-7" value="drm_atomic_helper_check_modeset" style="text;whiteSpace=wrap;html=1;" parent="1" vertex="1">
          <mxGeometry x="-103" y="345" width="200" height="30" as="geometry" />
        </mxCell>
        <mxCell id="inVT9cI3KzjuQ4xYqi-m-13" style="edgeStyle=orthogonalEdgeStyle;rounded=0;orthogonalLoop=1;jettySize=auto;html=1;exitX=0.5;exitY=1;exitDx=0;exitDy=0;entryX=0.5;entryY=0;entryDx=0;entryDy=0;" parent="1" source="inVT9cI3KzjuQ4xYqi-m-8" target="inVT9cI3KzjuQ4xYqi-m-11" edge="1">
          <mxGeometry relative="1" as="geometry" />
        </mxCell>
        <mxCell id="inVT9cI3KzjuQ4xYqi-m-8" value="drm_atomic_helper_check_planes" style="text;whiteSpace=wrap;html=1;" parent="1" vertex="1">
          <mxGeometry x="115.5" y="345" width="200" height="30" as="geometry" />
        </mxCell>
        <mxCell id="inVT9cI3KzjuQ4xYqi-m-14" style="edgeStyle=orthogonalEdgeStyle;rounded=0;orthogonalLoop=1;jettySize=auto;html=1;exitX=0.5;exitY=1;exitDx=0;exitDy=0;entryX=0.5;entryY=0;entryDx=0;entryDy=0;" parent="1" source="inVT9cI3KzjuQ4xYqi-m-11" target="inVT9cI3KzjuQ4xYqi-m-12" edge="1">
          <mxGeometry relative="1" as="geometry" />
        </mxCell>
        <mxCell id="inVT9cI3KzjuQ4xYqi-m-11" value="&lt;span style=&quot;forced-color-adjust: none; font-family: Helvetica; font-size: 12px; font-style: normal; font-variant-ligatures: normal; font-variant-caps: normal; letter-spacing: normal; orphans: 2; text-indent: 0px; text-transform: none; widows: 2; word-spacing: 0px; -webkit-text-stroke-width: 0px; white-space: nowrap; background-color: rgb(251, 251, 251); text-decoration-thickness: initial; text-decoration-style: initial; text-decoration-color: initial;&quot;&gt;&lt;font style=&quot;&quot; color=&quot;#ff3333&quot;&gt;plane_helper_funcs-&amp;gt;atomic_check&lt;/font&gt;&lt;/span&gt;" style="text;html=1;align=center;verticalAlign=middle;whiteSpace=wrap;rounded=0;" parent="1" vertex="1">
          <mxGeometry x="130.5" y="395" width="170" height="30" as="geometry" />
        </mxCell>
        <mxCell id="inVT9cI3KzjuQ4xYqi-m-12" value="&lt;span style=&quot;forced-color-adjust: none; font-family: Helvetica; font-size: 12px; font-style: normal; font-variant-ligatures: normal; font-variant-caps: normal; letter-spacing: normal; orphans: 2; text-indent: 0px; text-transform: none; widows: 2; word-spacing: 0px; -webkit-text-stroke-width: 0px; white-space: nowrap; background-color: rgb(251, 251, 251); text-decoration-thickness: initial; text-decoration-style: initial; text-decoration-color: initial;&quot;&gt;&lt;font style=&quot;&quot; color=&quot;#ff3333&quot;&gt;crtc_helper_funcs-&amp;gt;atomic_check&lt;/font&gt;&lt;/span&gt;" style="text;html=1;align=center;verticalAlign=middle;whiteSpace=wrap;rounded=0;" parent="1" vertex="1">
          <mxGeometry x="130.5" y="445" width="170" height="30" as="geometry" />
        </mxCell>
        <mxCell id="SGbNxjFCH1gDrcXbBLk8-2" style="edgeStyle=orthogonalEdgeStyle;rounded=0;orthogonalLoop=1;jettySize=auto;html=1;exitX=0.5;exitY=1;exitDx=0;exitDy=0;entryX=0.5;entryY=0;entryDx=0;entryDy=0;" parent="1" source="inVT9cI3KzjuQ4xYqi-m-15" target="SGbNxjFCH1gDrcXbBLk8-1" edge="1">
          <mxGeometry relative="1" as="geometry" />
        </mxCell>
        <mxCell id="inVT9cI3KzjuQ4xYqi-m-15" value="&lt;span style=&quot;forced-color-adjust: none; font-family: Helvetica; font-size: 12px; font-style: normal; font-variant-ligatures: normal; font-variant-caps: normal; letter-spacing: normal; orphans: 2; text-indent: 0px; text-transform: none; widows: 2; word-spacing: 0px; -webkit-text-stroke-width: 0px; white-space: nowrap; background-color: rgb(251, 251, 251); text-decoration-thickness: initial; text-decoration-style: initial; text-decoration-color: initial;&quot;&gt;&lt;font style=&quot;&quot; color=&quot;#ff3333&quot;&gt;connector_helper_funcs-&amp;gt;atomic_check&lt;/font&gt;&lt;/span&gt;" style="text;html=1;align=center;verticalAlign=middle;whiteSpace=wrap;rounded=0;" parent="1" vertex="1">
          <mxGeometry x="-88" y="395" width="170" height="30" as="geometry" />
        </mxCell>
        <mxCell id="inVT9cI3KzjuQ4xYqi-m-28" style="edgeStyle=orthogonalEdgeStyle;rounded=0;orthogonalLoop=1;jettySize=auto;html=1;exitX=0.5;exitY=1;exitDx=0;exitDy=0;entryX=0.5;entryY=0;entryDx=0;entryDy=0;" parent="1" source="inVT9cI3KzjuQ4xYqi-m-17" target="inVT9cI3KzjuQ4xYqi-m-21" edge="1">
          <mxGeometry relative="1" as="geometry" />
        </mxCell>
        <mxCell id="inVT9cI3KzjuQ4xYqi-m-17" value="drm_atomic_helper_commit_planes" style="text;whiteSpace=wrap;html=1;verticalAlign=middle;" parent="1" vertex="1">
          <mxGeometry x="440.25" y="600.75" width="200" height="30" as="geometry" />
        </mxCell>
        <mxCell id="inVT9cI3KzjuQ4xYqi-m-33" style="edgeStyle=orthogonalEdgeStyle;rounded=0;orthogonalLoop=1;jettySize=auto;html=1;exitX=0.5;exitY=1;exitDx=0;exitDy=0;entryX=0.5;entryY=0;entryDx=0;entryDy=0;" parent="1" source="inVT9cI3KzjuQ4xYqi-m-18" target="inVT9cI3KzjuQ4xYqi-m-20" edge="1">
          <mxGeometry relative="1" as="geometry" />
        </mxCell>
        <mxCell id="inVT9cI3KzjuQ4xYqi-m-18" value="&lt;font color=&quot;#ff3333&quot;&gt;&lt;span style=&quot;text-wrap: nowrap;&quot;&gt;crtc_helper_funcs-&amp;gt;atomic_flush&lt;/span&gt;&lt;/font&gt;" style="text;html=1;align=center;verticalAlign=middle;whiteSpace=wrap;rounded=0;" parent="1" vertex="1">
          <mxGeometry x="455.25" y="750.75" width="170" height="30" as="geometry" />
        </mxCell>
        <mxCell id="inVT9cI3KzjuQ4xYqi-m-20" value="&lt;font color=&quot;#ff3333&quot;&gt;&lt;span style=&quot;text-wrap: nowrap;&quot;&gt;crtc_helper_funcs-&amp;gt;end_fb_access&lt;/span&gt;&lt;/font&gt;" style="text;html=1;align=center;verticalAlign=middle;whiteSpace=wrap;rounded=0;" parent="1" vertex="1">
          <mxGeometry x="455.25" y="790.25" width="170" height="30" as="geometry" />
        </mxCell>
        <mxCell id="inVT9cI3KzjuQ4xYqi-m-30" style="edgeStyle=orthogonalEdgeStyle;rounded=0;orthogonalLoop=1;jettySize=auto;html=1;exitX=0.5;exitY=1;exitDx=0;exitDy=0;entryX=0.5;entryY=0;entryDx=0;entryDy=0;" parent="1" source="inVT9cI3KzjuQ4xYqi-m-21" target="inVT9cI3KzjuQ4xYqi-m-22" edge="1">
          <mxGeometry relative="1" as="geometry" />
        </mxCell>
        <mxCell id="inVT9cI3KzjuQ4xYqi-m-21" value="&lt;font color=&quot;#ff3333&quot;&gt;&lt;span style=&quot;text-wrap: nowrap;&quot;&gt;crtc_helper_funcs-&amp;gt;atomic_begin&lt;/span&gt;&lt;/font&gt;" style="text;html=1;align=center;verticalAlign=middle;whiteSpace=wrap;rounded=0;" parent="1" vertex="1">
          <mxGeometry x="455.25" y="640.75" width="170" height="30" as="geometry" />
        </mxCell>
        <mxCell id="inVT9cI3KzjuQ4xYqi-m-31" style="edgeStyle=orthogonalEdgeStyle;rounded=0;orthogonalLoop=1;jettySize=auto;html=1;exitX=0.5;exitY=1;exitDx=0;exitDy=0;entryX=0.5;entryY=0;entryDx=0;entryDy=0;" parent="1" source="inVT9cI3KzjuQ4xYqi-m-22" target="inVT9cI3KzjuQ4xYqi-m-23" edge="1">
          <mxGeometry relative="1" as="geometry" />
        </mxCell>
        <mxCell id="inVT9cI3KzjuQ4xYqi-m-22" value="&lt;font color=&quot;#ff3333&quot;&gt;&lt;span style=&quot;text-wrap: nowrap;&quot;&gt;&lt;span style=&quot;font-weight: normal;&quot;&gt;plane_helper_funcs-&amp;gt;atomic_update&lt;/span&gt;&lt;/span&gt;&lt;/font&gt;" style="text;html=1;align=center;verticalAlign=middle;whiteSpace=wrap;rounded=0;fontStyle=1" parent="1" vertex="1">
          <mxGeometry x="455.25" y="676" width="170" height="29.5" as="geometry" />
        </mxCell>
        <mxCell id="inVT9cI3KzjuQ4xYqi-m-32" style="edgeStyle=orthogonalEdgeStyle;rounded=0;orthogonalLoop=1;jettySize=auto;html=1;exitX=0.5;exitY=1;exitDx=0;exitDy=0;entryX=0.5;entryY=0;entryDx=0;entryDy=0;" parent="1" source="inVT9cI3KzjuQ4xYqi-m-23" target="inVT9cI3KzjuQ4xYqi-m-18" edge="1">
          <mxGeometry relative="1" as="geometry" />
        </mxCell>
        <mxCell id="inVT9cI3KzjuQ4xYqi-m-23" value="&lt;font color=&quot;#ff3333&quot;&gt;&lt;span style=&quot;text-wrap: nowrap;&quot;&gt;plane&lt;/span&gt;&lt;/font&gt;&lt;span style=&quot;text-wrap: nowrap; color: rgb(255, 51, 51); background-color: initial;&quot;&gt;_helper_funcs-&amp;gt;atomic_enable&lt;/span&gt;" style="text;html=1;align=center;verticalAlign=middle;whiteSpace=wrap;rounded=0;" parent="1" vertex="1">
          <mxGeometry x="455.25" y="710.75" width="170" height="30" as="geometry" />
        </mxCell>
        <mxCell id="3mboC_igE18zgCTg4L_F-31" style="edgeStyle=orthogonalEdgeStyle;rounded=0;orthogonalLoop=1;jettySize=auto;html=1;exitX=0.5;exitY=1;exitDx=0;exitDy=0;entryX=0.5;entryY=0;entryDx=0;entryDy=0;" parent="1" source="inVT9cI3KzjuQ4xYqi-m-25" target="inVT9cI3KzjuQ4xYqi-m-40" edge="1">
          <mxGeometry relative="1" as="geometry">
            <Array as="points">
              <mxPoint x="692" y="275" />
              <mxPoint x="584" y="275" />
            </Array>
          </mxGeometry>
        </mxCell>
        <mxCell id="3mboC_igE18zgCTg4L_F-34" style="edgeStyle=orthogonalEdgeStyle;rounded=0;orthogonalLoop=1;jettySize=auto;html=1;exitX=0.5;exitY=1;exitDx=0;exitDy=0;entryX=0.5;entryY=0;entryDx=0;entryDy=0;" parent="1" source="inVT9cI3KzjuQ4xYqi-m-25" target="inVT9cI3KzjuQ4xYqi-m-34" edge="1">
          <mxGeometry relative="1" as="geometry">
            <Array as="points">
              <mxPoint x="692" y="275" />
              <mxPoint x="967" y="275" />
            </Array>
          </mxGeometry>
        </mxCell>
        <mxCell id="3mboC_igE18zgCTg4L_F-39" style="edgeStyle=orthogonalEdgeStyle;rounded=0;orthogonalLoop=1;jettySize=auto;html=1;exitX=0.5;exitY=1;exitDx=0;exitDy=0;entryX=0.5;entryY=0;entryDx=0;entryDy=0;" parent="1" source="inVT9cI3KzjuQ4xYqi-m-25" target="3mboC_igE18zgCTg4L_F-38" edge="1">
          <mxGeometry relative="1" as="geometry">
            <Array as="points">
              <mxPoint x="692" y="275" />
              <mxPoint x="787" y="275" />
            </Array>
          </mxGeometry>
        </mxCell>
        <mxCell id="3mboC_igE18zgCTg4L_F-43" style="edgeStyle=orthogonalEdgeStyle;rounded=0;orthogonalLoop=1;jettySize=auto;html=1;exitX=0.5;exitY=1;exitDx=0;exitDy=0;entryX=0.5;entryY=1;entryDx=0;entryDy=0;" parent="1" source="inVT9cI3KzjuQ4xYqi-m-25" target="3mboC_igE18zgCTg4L_F-42" edge="1">
          <mxGeometry relative="1" as="geometry">
            <Array as="points">
              <mxPoint x="692" y="275" />
              <mxPoint x="917" y="275" />
            </Array>
          </mxGeometry>
        </mxCell>
        <mxCell id="inVT9cI3KzjuQ4xYqi-m-25" value="&lt;span style=&quot;text-align: center; text-wrap: nowrap;&quot;&gt;drm_atomic_helper_commit&lt;/span&gt;" style="text;whiteSpace=wrap;html=1;verticalAlign=middle;" parent="1" vertex="1">
          <mxGeometry x="614.5" y="235" width="155" height="30" as="geometry" />
        </mxCell>
        <mxCell id="ozSf_emoWEw6sIMOIEAe-100" style="edgeStyle=orthogonalEdgeStyle;rounded=0;orthogonalLoop=1;jettySize=auto;html=1;exitX=0.5;exitY=1;exitDx=0;exitDy=0;entryX=0.5;entryY=0;entryDx=0;entryDy=0;" parent="1" source="inVT9cI3KzjuQ4xYqi-m-34" target="3mboC_igE18zgCTg4L_F-44" edge="1">
          <mxGeometry relative="1" as="geometry">
            <Array as="points">
              <mxPoint x="967" y="435" />
              <mxPoint x="577" y="435" />
            </Array>
          </mxGeometry>
        </mxCell>
        <mxCell id="ozSf_emoWEw6sIMOIEAe-103" style="edgeStyle=orthogonalEdgeStyle;rounded=0;orthogonalLoop=1;jettySize=auto;html=1;exitX=0.5;exitY=1;exitDx=0;exitDy=0;entryX=0.5;entryY=0;entryDx=0;entryDy=0;" parent="1" source="inVT9cI3KzjuQ4xYqi-m-34" target="inVT9cI3KzjuQ4xYqi-m-37" edge="1">
          <mxGeometry relative="1" as="geometry">
            <Array as="points">
              <mxPoint x="967" y="435" />
              <mxPoint x="787" y="435" />
            </Array>
          </mxGeometry>
        </mxCell>
        <mxCell id="inVT9cI3KzjuQ4xYqi-m-34" value="commit_tail" style="text;whiteSpace=wrap;html=1;align=center;verticalAlign=middle;" parent="1" vertex="1">
          <mxGeometry x="932" y="290" width="70" height="30" as="geometry" />
        </mxCell>
        <mxCell id="ozSf_emoWEw6sIMOIEAe-4" style="edgeStyle=orthogonalEdgeStyle;rounded=0;orthogonalLoop=1;jettySize=auto;html=1;exitX=0.5;exitY=1;exitDx=0;exitDy=0;entryX=0.5;entryY=0;entryDx=0;entryDy=0;" parent="1" source="inVT9cI3KzjuQ4xYqi-m-37" target="inVT9cI3KzjuQ4xYqi-m-17" edge="1">
          <mxGeometry relative="1" as="geometry" />
        </mxCell>
        <mxCell id="ozSf_emoWEw6sIMOIEAe-5" style="edgeStyle=orthogonalEdgeStyle;rounded=0;orthogonalLoop=1;jettySize=auto;html=1;exitX=0.5;exitY=1;exitDx=0;exitDy=0;entryX=0.5;entryY=0;entryDx=0;entryDy=0;" parent="1" source="inVT9cI3KzjuQ4xYqi-m-37" target="3mboC_igE18zgCTg4L_F-45" edge="1">
          <mxGeometry relative="1" as="geometry" />
        </mxCell>
        <mxCell id="SGbNxjFCH1gDrcXbBLk8-26" style="edgeStyle=orthogonalEdgeStyle;rounded=0;orthogonalLoop=1;jettySize=auto;html=1;exitX=0.5;exitY=1;exitDx=0;exitDy=0;entryX=0.5;entryY=0;entryDx=0;entryDy=0;" parent="1" source="inVT9cI3KzjuQ4xYqi-m-37" target="SGbNxjFCH1gDrcXbBLk8-25" edge="1">
          <mxGeometry relative="1" as="geometry" />
        </mxCell>
        <mxCell id="gn15YKwrfAViyjrjY27p-2" style="edgeStyle=orthogonalEdgeStyle;rounded=0;orthogonalLoop=1;jettySize=auto;html=1;exitX=0.5;exitY=1;exitDx=0;exitDy=0;entryX=0.5;entryY=0;entryDx=0;entryDy=0;" parent="1" source="inVT9cI3KzjuQ4xYqi-m-37" target="gn15YKwrfAViyjrjY27p-1" edge="1">
          <mxGeometry relative="1" as="geometry" />
        </mxCell>
        <mxCell id="gn15YKwrfAViyjrjY27p-4" style="edgeStyle=orthogonalEdgeStyle;rounded=0;orthogonalLoop=1;jettySize=auto;html=1;exitX=0.5;exitY=1;exitDx=0;exitDy=0;" parent="1" source="inVT9cI3KzjuQ4xYqi-m-37" target="gn15YKwrfAViyjrjY27p-3" edge="1">
          <mxGeometry relative="1" as="geometry" />
        </mxCell>
        <mxCell id="gn15YKwrfAViyjrjY27p-6" style="edgeStyle=orthogonalEdgeStyle;rounded=0;orthogonalLoop=1;jettySize=auto;html=1;exitX=0.5;exitY=1;exitDx=0;exitDy=0;entryX=0.5;entryY=0;entryDx=0;entryDy=0;" parent="1" source="inVT9cI3KzjuQ4xYqi-m-37" target="gn15YKwrfAViyjrjY27p-5" edge="1">
          <mxGeometry relative="1" as="geometry" />
        </mxCell>
        <mxCell id="inVT9cI3KzjuQ4xYqi-m-37" value="drm_atomic_helper_commit_tail" style="text;whiteSpace=wrap;html=1;align=center;verticalAlign=middle;" parent="1" vertex="1">
          <mxGeometry x="697" y="495" width="180" height="30" as="geometry" />
        </mxCell>
        <mxCell id="3mboC_igE18zgCTg4L_F-32" style="edgeStyle=orthogonalEdgeStyle;rounded=0;orthogonalLoop=1;jettySize=auto;html=1;exitX=0.5;exitY=1;exitDx=0;exitDy=0;entryX=0.5;entryY=0;entryDx=0;entryDy=0;" parent="1" source="inVT9cI3KzjuQ4xYqi-m-40" target="inVT9cI3KzjuQ4xYqi-m-42" edge="1">
          <mxGeometry relative="1" as="geometry" />
        </mxCell>
        <mxCell id="inVT9cI3KzjuQ4xYqi-m-40" value="drm_atomic_helper_setup_commit" style="text;whiteSpace=wrap;html=1;verticalAlign=middle;align=center;" parent="1" vertex="1">
          <mxGeometry x="483.5" y="295" width="200" height="20" as="geometry" />
        </mxCell>
        <mxCell id="inVT9cI3KzjuQ4xYqi-m-42" value="config-&amp;gt;funcs-&amp;gt;atomic_commit_setup" style="text;whiteSpace=wrap;html=1;fontColor=#FF3333;" parent="1" vertex="1">
          <mxGeometry x="480" y="330" width="207" height="30" as="geometry" />
        </mxCell>
        <mxCell id="3mboC_igE18zgCTg4L_F-1" value="drm_self_refresh_helper_alter_state" style="text;whiteSpace=wrap;html=1;align=center;verticalAlign=middle;" parent="1" vertex="1">
          <mxGeometry x="307" y="345" width="200" height="30" as="geometry" />
        </mxCell>
        <mxCell id="3mboC_igE18zgCTg4L_F-8" style="edgeStyle=orthogonalEdgeStyle;rounded=0;orthogonalLoop=1;jettySize=auto;html=1;exitX=0.5;exitY=1;exitDx=0;exitDy=0;entryX=0.5;entryY=0;entryDx=0;entryDy=0;" parent="1" source="3mboC_igE18zgCTg4L_F-4" target="z1ZTVlwwsorMF4e4j1b6-7" edge="1">
          <mxGeometry relative="1" as="geometry" />
        </mxCell>
        <mxCell id="3mboC_igE18zgCTg4L_F-10" style="edgeStyle=orthogonalEdgeStyle;rounded=0;orthogonalLoop=1;jettySize=auto;html=1;exitX=0.5;exitY=1;exitDx=0;exitDy=0;entryX=0.5;entryY=0;entryDx=0;entryDy=0;" parent="1" source="3mboC_igE18zgCTg4L_F-4" target="3mboC_igE18zgCTg4L_F-9" edge="1">
          <mxGeometry relative="1" as="geometry" />
        </mxCell>
        <mxCell id="OpuFSFoiAB805dbF5H-I-2" style="edgeStyle=orthogonalEdgeStyle;rounded=0;orthogonalLoop=1;jettySize=auto;html=1;exitX=0.5;exitY=1;exitDx=0;exitDy=0;entryX=0.5;entryY=0;entryDx=0;entryDy=0;" parent="1" source="3mboC_igE18zgCTg4L_F-4" target="OpuFSFoiAB805dbF5H-I-1" edge="1">
          <mxGeometry relative="1" as="geometry" />
        </mxCell>
        <mxCell id="3mboC_igE18zgCTg4L_F-4" value="&lt;span style=&quot;color: rgb(0, 0, 0); font-family: Helvetica; font-size: 12px; font-style: normal; font-variant-ligatures: normal; font-variant-caps: normal; font-weight: 400; letter-spacing: normal; orphans: 2; text-align: center; text-indent: 0px; text-transform: none; widows: 2; word-spacing: 0px; -webkit-text-stroke-width: 0px; white-space: nowrap; background-color: rgb(251, 251, 251); text-decoration-thickness: initial; text-decoration-style: initial; text-decoration-color: initial; display: inline !important; float: none;&quot;&gt;drm_mode_atomic_ioctl&lt;/span&gt;" style="text;html=1;align=center;verticalAlign=middle;whiteSpace=wrap;rounded=0;" parent="1" vertex="1">
          <mxGeometry x="165" y="20" width="135" height="30" as="geometry" />
        </mxCell>
        <mxCell id="3mboC_igE18zgCTg4L_F-22" style="edgeStyle=orthogonalEdgeStyle;rounded=0;orthogonalLoop=1;jettySize=auto;html=1;exitX=0.5;exitY=1;exitDx=0;exitDy=0;entryX=0.5;entryY=0;entryDx=0;entryDy=0;" parent="1" source="3mboC_igE18zgCTg4L_F-9" target="3mboC_igE18zgCTg4L_F-21" edge="1">
          <mxGeometry relative="1" as="geometry" />
        </mxCell>
        <mxCell id="3mboC_igE18zgCTg4L_F-9" value="&lt;span style=&quot;text-wrap: nowrap;&quot;&gt;drm_atomic_set_property&lt;/span&gt;" style="text;html=1;align=center;verticalAlign=middle;whiteSpace=wrap;rounded=0;" parent="1" vertex="1">
          <mxGeometry x="-223" y="111.25" width="150" height="30" as="geometry" />
        </mxCell>
        <mxCell id="3mboC_igE18zgCTg4L_F-13" style="edgeStyle=orthogonalEdgeStyle;rounded=0;orthogonalLoop=1;jettySize=auto;html=1;exitX=0.5;exitY=1;exitDx=0;exitDy=0;entryX=0.528;entryY=0.032;entryDx=0;entryDy=0;entryPerimeter=0;" parent="1" source="3mboC_igE18zgCTg4L_F-4" target="z1ZTVlwwsorMF4e4j1b6-2" edge="1">
          <mxGeometry relative="1" as="geometry" />
        </mxCell>
        <mxCell id="3mboC_igE18zgCTg4L_F-24" style="edgeStyle=orthogonalEdgeStyle;rounded=0;orthogonalLoop=1;jettySize=auto;html=1;exitX=0.5;exitY=1;exitDx=0;exitDy=0;entryX=0.5;entryY=0;entryDx=0;entryDy=0;" parent="1" source="3mboC_igE18zgCTg4L_F-21" target="3mboC_igE18zgCTg4L_F-23" edge="1">
          <mxGeometry relative="1" as="geometry" />
        </mxCell>
        <mxCell id="3mboC_igE18zgCTg4L_F-21" value="drm_atomic_get_connector/crtc/plane_state" style="text;whiteSpace=wrap;html=1;" parent="1" vertex="1">
          <mxGeometry x="-268" y="165" width="240" height="25" as="geometry" />
        </mxCell>
        <mxCell id="3mboC_igE18zgCTg4L_F-26" style="edgeStyle=orthogonalEdgeStyle;rounded=0;orthogonalLoop=1;jettySize=auto;html=1;exitX=0.5;exitY=1;exitDx=0;exitDy=0;entryX=0.5;entryY=0;entryDx=0;entryDy=0;" parent="1" source="3mboC_igE18zgCTg4L_F-23" target="59reyXUg0gu2296uByz6-4" edge="1">
          <mxGeometry relative="1" as="geometry" />
        </mxCell>
        <mxCell id="3mboC_igE18zgCTg4L_F-23" value="&lt;span style=&quot;forced-color-adjust: none; font-family: Helvetica; font-size: 12px; font-style: normal; font-variant-ligatures: normal; font-variant-caps: normal; letter-spacing: normal; orphans: 2; text-indent: 0px; text-transform: none; widows: 2; word-spacing: 0px; -webkit-text-stroke-width: 0px; white-space: nowrap; background-color: rgb(251, 251, 251); text-decoration-thickness: initial; text-decoration-style: initial; text-decoration-color: initial;&quot;&gt;&lt;font style=&quot;&quot; color=&quot;#ff3333&quot;&gt;connector/crtc/plane-&amp;gt;funcs-&amp;gt;atomic_duplicate_state&lt;/font&gt;&lt;/span&gt;" style="text;html=1;align=center;verticalAlign=middle;whiteSpace=wrap;rounded=0;" parent="1" vertex="1">
          <mxGeometry x="-263" y="205" width="230" height="30" as="geometry" />
        </mxCell>
        <mxCell id="3mboC_igE18zgCTg4L_F-27" value="connector/crtc/plane-&amp;gt;funcs-&amp;gt;atomic_set_property" style="text;html=1;align=center;verticalAlign=middle;whiteSpace=wrap;rounded=0;fontColor=#FF3333;" parent="1" vertex="1">
          <mxGeometry x="-288" y="285" width="280" height="30" as="geometry" />
        </mxCell>
        <mxCell id="3mboC_igE18zgCTg4L_F-41" style="edgeStyle=orthogonalEdgeStyle;rounded=0;orthogonalLoop=1;jettySize=auto;html=1;exitX=0.5;exitY=1;exitDx=0;exitDy=0;entryX=0.5;entryY=0;entryDx=0;entryDy=0;" parent="1" source="3mboC_igE18zgCTg4L_F-38" target="3mboC_igE18zgCTg4L_F-40" edge="1">
          <mxGeometry relative="1" as="geometry" />
        </mxCell>
        <mxCell id="3mboC_igE18zgCTg4L_F-38" value="drm_atomic_helper_prepare_planes" style="text;whiteSpace=wrap;html=1;align=center;verticalAlign=middle;" parent="1" vertex="1">
          <mxGeometry x="687" y="292.5" width="200" height="25" as="geometry" />
        </mxCell>
        <mxCell id="ozSf_emoWEw6sIMOIEAe-101" style="edgeStyle=orthogonalEdgeStyle;rounded=0;orthogonalLoop=1;jettySize=auto;html=1;exitX=0.5;exitY=1;exitDx=0;exitDy=0;entryX=0.5;entryY=0;entryDx=0;entryDy=0;" parent="1" source="3mboC_igE18zgCTg4L_F-40" target="ozSf_emoWEw6sIMOIEAe-99" edge="1">
          <mxGeometry relative="1" as="geometry" />
        </mxCell>
        <mxCell id="3mboC_igE18zgCTg4L_F-40" value="plane_helper_funcs-&amp;gt;prepare_fb" style="text;whiteSpace=wrap;html=1;fontColor=#FF3333;" parent="1" vertex="1">
          <mxGeometry x="697" y="330" width="180" height="30" as="geometry" />
        </mxCell>
        <mxCell id="3mboC_igE18zgCTg4L_F-42" value="drm_atomic_helper_wait_for_fences" style="text;whiteSpace=wrap;html=1;" parent="1" vertex="1">
          <mxGeometry x="817" y="225" width="200" height="30" as="geometry" />
        </mxCell>
        <mxCell id="3mboC_igE18zgCTg4L_F-44" value="drm_atomic_helper_wait_for_fences" style="text;whiteSpace=wrap;html=1;align=center;verticalAlign=middle;" parent="1" vertex="1">
          <mxGeometry x="487" y="495" width="180" height="30" as="geometry" />
        </mxCell>
        <mxCell id="3mboC_igE18zgCTg4L_F-53" style="edgeStyle=orthogonalEdgeStyle;rounded=0;orthogonalLoop=1;jettySize=auto;html=1;exitX=0.5;exitY=1;exitDx=0;exitDy=0;entryX=0.5;entryY=0;entryDx=0;entryDy=0;" parent="1" source="3mboC_igE18zgCTg4L_F-45" target="3mboC_igE18zgCTg4L_F-51" edge="1">
          <mxGeometry relative="1" as="geometry" />
        </mxCell>
        <mxCell id="3mboC_igE18zgCTg4L_F-45" value="drm_atomic_helper_commit_modeset_enables" style="text;whiteSpace=wrap;html=1;" parent="1" vertex="1">
          <mxGeometry x="690.25" y="600.75" width="260" height="30" as="geometry" />
        </mxCell>
        <mxCell id="3mboC_igE18zgCTg4L_F-54" style="edgeStyle=orthogonalEdgeStyle;rounded=0;orthogonalLoop=1;jettySize=auto;html=1;exitX=0.5;exitY=1;exitDx=0;exitDy=0;entryX=0.5;entryY=0;entryDx=0;entryDy=0;" parent="1" source="3mboC_igE18zgCTg4L_F-51" target="3mboC_igE18zgCTg4L_F-52" edge="1">
          <mxGeometry relative="1" as="geometry" />
        </mxCell>
        <mxCell id="3mboC_igE18zgCTg4L_F-51" value="&lt;font color=&quot;#ff3333&quot;&gt;&lt;span style=&quot;text-wrap: nowrap;&quot;&gt;crtc_helper_funcs-&amp;gt;atomic_enable&lt;/span&gt;&lt;/font&gt;" style="text;html=1;align=center;verticalAlign=middle;whiteSpace=wrap;rounded=0;" parent="1" vertex="1">
          <mxGeometry x="722.75" y="645.75" width="195" height="30" as="geometry" />
        </mxCell>
        <mxCell id="3mboC_igE18zgCTg4L_F-56" style="edgeStyle=orthogonalEdgeStyle;rounded=0;orthogonalLoop=1;jettySize=auto;html=1;exitX=0.5;exitY=1;exitDx=0;exitDy=0;entryX=0.5;entryY=0;entryDx=0;entryDy=0;" parent="1" source="3mboC_igE18zgCTg4L_F-52" target="3mboC_igE18zgCTg4L_F-55" edge="1">
          <mxGeometry relative="1" as="geometry" />
        </mxCell>
        <mxCell id="3mboC_igE18zgCTg4L_F-52" value="&lt;font color=&quot;#ff3333&quot;&gt;&lt;span style=&quot;text-wrap: nowrap;&quot;&gt;encoder_helper_funcs-&amp;gt;atomic_enable&lt;/span&gt;&lt;/font&gt;" style="text;html=1;align=center;verticalAlign=middle;whiteSpace=wrap;rounded=0;" parent="1" vertex="1">
          <mxGeometry x="722.75" y="690.25" width="195" height="30" as="geometry" />
        </mxCell>
        <mxCell id="3mboC_igE18zgCTg4L_F-58" style="edgeStyle=orthogonalEdgeStyle;rounded=0;orthogonalLoop=1;jettySize=auto;html=1;exitX=0.5;exitY=1;exitDx=0;exitDy=0;entryX=0.5;entryY=0;entryDx=0;entryDy=0;" parent="1" source="3mboC_igE18zgCTg4L_F-55" target="3mboC_igE18zgCTg4L_F-57" edge="1">
          <mxGeometry relative="1" as="geometry" />
        </mxCell>
        <mxCell id="3mboC_igE18zgCTg4L_F-55" value="drm_atomic_bridge_chain_enable" style="text;whiteSpace=wrap;html=1;" parent="1" vertex="1">
          <mxGeometry x="725.25" y="730.75" width="190" height="30" as="geometry" />
        </mxCell>
        <mxCell id="3mboC_igE18zgCTg4L_F-57" value="&lt;font color=&quot;#ff3333&quot;&gt;&lt;span style=&quot;text-wrap: nowrap;&quot;&gt;drm_bridge_funcs-&amp;gt;atomic_enable&lt;/span&gt;&lt;/font&gt;" style="text;html=1;align=center;verticalAlign=middle;whiteSpace=wrap;rounded=0;" parent="1" vertex="1">
          <mxGeometry x="722.75" y="770.75" width="195" height="30" as="geometry" />
        </mxCell>
        <mxCell id="ozSf_emoWEw6sIMOIEAe-32" style="edgeStyle=orthogonalEdgeStyle;rounded=0;orthogonalLoop=1;jettySize=auto;html=1;exitX=0.5;exitY=1;exitDx=0;exitDy=0;entryX=0.5;entryY=0;entryDx=0;entryDy=0;" parent="1" source="ozSf_emoWEw6sIMOIEAe-1" target="ozSf_emoWEw6sIMOIEAe-7" edge="1">
          <mxGeometry relative="1" as="geometry" />
        </mxCell>
        <mxCell id="hBJA5JrjO7JEtEhDDZ1C-3" style="edgeStyle=orthogonalEdgeStyle;rounded=0;orthogonalLoop=1;jettySize=auto;html=1;exitX=1;exitY=0.5;exitDx=0;exitDy=0;entryX=0;entryY=0.5;entryDx=0;entryDy=0;" parent="1" source="ozSf_emoWEw6sIMOIEAe-1" target="ozSf_emoWEw6sIMOIEAe-21" edge="1">
          <mxGeometry relative="1" as="geometry" />
        </mxCell>
        <mxCell id="ozSf_emoWEw6sIMOIEAe-1" value="drmSetClientCap(fd, DRM_CLIENT_CAP_UNIVERSAL_PLANES, 1)" style="text;whiteSpace=wrap;html=1;" parent="1" vertex="1">
          <mxGeometry x="-740" y="-1560" width="380" height="30" as="geometry" />
        </mxCell>
        <mxCell id="ozSf_emoWEw6sIMOIEAe-6" value="file_priv-&amp;gt;universal_planes = 1" style="text;whiteSpace=wrap;html=1;" parent="1" vertex="1">
          <mxGeometry x="20.75" y="-1550" width="181.5" height="30" as="geometry" />
        </mxCell>
        <mxCell id="ozSf_emoWEw6sIMOIEAe-25" style="edgeStyle=orthogonalEdgeStyle;rounded=0;orthogonalLoop=1;jettySize=auto;html=1;exitX=1;exitY=0.5;exitDx=0;exitDy=0;entryX=0;entryY=0.5;entryDx=0;entryDy=0;" parent="1" source="ozSf_emoWEw6sIMOIEAe-7" target="ozSf_emoWEw6sIMOIEAe-21" edge="1">
          <mxGeometry relative="1" as="geometry">
            <Array as="points">
              <mxPoint x="-340" y="-1461" />
              <mxPoint x="-340" y="-1505" />
            </Array>
          </mxGeometry>
        </mxCell>
        <mxCell id="ozSf_emoWEw6sIMOIEAe-33" style="edgeStyle=orthogonalEdgeStyle;rounded=0;orthogonalLoop=1;jettySize=auto;html=1;exitX=0.5;exitY=1;exitDx=0;exitDy=0;entryX=0.5;entryY=0;entryDx=0;entryDy=0;" parent="1" source="ozSf_emoWEw6sIMOIEAe-7" target="ozSf_emoWEw6sIMOIEAe-13" edge="1">
          <mxGeometry relative="1" as="geometry" />
        </mxCell>
        <mxCell id="ozSf_emoWEw6sIMOIEAe-7" value="drmSetClientCap(fd, DRM_CLIENT_CAP_ATOMIC, 1)" style="text;whiteSpace=wrap;html=1;" parent="1" vertex="1">
          <mxGeometry x="-700" y="-1479" width="300" height="35" as="geometry" />
        </mxCell>
        <mxCell id="ozSf_emoWEw6sIMOIEAe-10" value="file_priv-&amp;gt;atomic = 1;&lt;br&gt;file_priv-&amp;gt;universal_planes = 1;&lt;br&gt;file_priv-&amp;gt;aspect_ratio_allowed = 1;" style="text;whiteSpace=wrap;html=1;" parent="1" vertex="1">
          <mxGeometry x="20.75" y="-1491.5" width="204.25" height="60" as="geometry" />
        </mxCell>
        <mxCell id="ozSf_emoWEw6sIMOIEAe-37" style="edgeStyle=orthogonalEdgeStyle;rounded=0;orthogonalLoop=1;jettySize=auto;html=1;exitX=1;exitY=0.5;exitDx=0;exitDy=0;entryX=0;entryY=0.5;entryDx=0;entryDy=0;" parent="1" source="ozSf_emoWEw6sIMOIEAe-13" target="ozSf_emoWEw6sIMOIEAe-18" edge="1">
          <mxGeometry relative="1" as="geometry">
            <Array as="points">
              <mxPoint x="-360" y="-1355" />
              <mxPoint x="-360" y="-1313" />
            </Array>
          </mxGeometry>
        </mxCell>
        <mxCell id="ozSf_emoWEw6sIMOIEAe-39" style="edgeStyle=orthogonalEdgeStyle;rounded=0;orthogonalLoop=1;jettySize=auto;html=1;exitX=0.5;exitY=1;exitDx=0;exitDy=0;entryX=0.5;entryY=0;entryDx=0;entryDy=0;" parent="1" source="ozSf_emoWEw6sIMOIEAe-13" edge="1">
          <mxGeometry relative="1" as="geometry">
            <mxPoint x="-550" y="-1290" as="targetPoint" />
          </mxGeometry>
        </mxCell>
        <mxCell id="ozSf_emoWEw6sIMOIEAe-13" value="drmGetCap(fd, DRM_CAP_DUMB_BUFFER, &amp;cap)" style="text;whiteSpace=wrap;html=1;" parent="1" vertex="1">
          <mxGeometry x="-695" y="-1370" width="290" height="30" as="geometry" />
        </mxCell>
        <mxCell id="ozSf_emoWEw6sIMOIEAe-15" value="if (dev-&amp;gt;driver-&amp;gt;dumb_create)&lt;div&gt;&lt;span style=&quot;white-space: pre;&quot;&gt;&#x9;&lt;/span&gt;req-&amp;gt;value = 1;&lt;br&gt;&lt;div&gt;&lt;br&gt;&lt;div&gt;&lt;br&gt;&lt;/div&gt;&lt;/div&gt;&lt;/div&gt;" style="text;whiteSpace=wrap;html=1;" parent="1" vertex="1">
          <mxGeometry x="45" y="-1370" width="180" height="30" as="geometry" />
        </mxCell>
        <mxCell id="ozSf_emoWEw6sIMOIEAe-38" style="edgeStyle=orthogonalEdgeStyle;rounded=0;orthogonalLoop=1;jettySize=auto;html=1;exitX=1;exitY=0.5;exitDx=0;exitDy=0;entryX=0;entryY=0.5;entryDx=0;entryDy=0;" parent="1" target="ozSf_emoWEw6sIMOIEAe-18" edge="1">
          <mxGeometry relative="1" as="geometry">
            <Array as="points">
              <mxPoint x="-360" y="-1275" />
              <mxPoint x="-360" y="-1313" />
            </Array>
            <mxPoint x="-375" y="-1275" as="sourcePoint" />
          </mxGeometry>
        </mxCell>
        <mxCell id="ozSf_emoWEw6sIMOIEAe-69" style="edgeStyle=orthogonalEdgeStyle;rounded=0;orthogonalLoop=1;jettySize=auto;html=1;exitX=0.5;exitY=1;exitDx=0;exitDy=0;entryX=0.5;entryY=0;entryDx=0;entryDy=0;" parent="1" target="ozSf_emoWEw6sIMOIEAe-41" edge="1">
          <mxGeometry relative="1" as="geometry">
            <mxPoint x="-550" y="-1260" as="sourcePoint" />
          </mxGeometry>
        </mxCell>
        <mxCell id="ozSf_emoWEw6sIMOIEAe-17" value="drmGetCap(fd, DRM_CAP_CRTC_IN_VBLANK_EVENT, &amp;cap)" style="text;whiteSpace=wrap;html=1;" parent="1" vertex="1">
          <mxGeometry x="-725" y="-1290" width="350" height="30" as="geometry" />
        </mxCell>
        <mxCell id="ozSf_emoWEw6sIMOIEAe-28" style="edgeStyle=orthogonalEdgeStyle;rounded=0;orthogonalLoop=1;jettySize=auto;html=1;exitX=1;exitY=0.5;exitDx=0;exitDy=0;entryX=0;entryY=0.5;entryDx=0;entryDy=0;" parent="1" source="ozSf_emoWEw6sIMOIEAe-18" target="ozSf_emoWEw6sIMOIEAe-15" edge="1">
          <mxGeometry relative="1" as="geometry" />
        </mxCell>
        <mxCell id="ozSf_emoWEw6sIMOIEAe-31" style="edgeStyle=orthogonalEdgeStyle;rounded=0;orthogonalLoop=1;jettySize=auto;html=1;exitX=1;exitY=0.5;exitDx=0;exitDy=0;entryX=0;entryY=0.5;entryDx=0;entryDy=0;" parent="1" source="ozSf_emoWEw6sIMOIEAe-18" target="ozSf_emoWEw6sIMOIEAe-30" edge="1">
          <mxGeometry relative="1" as="geometry" />
        </mxCell>
        <mxCell id="ozSf_emoWEw6sIMOIEAe-18" value="drmIoctl(fd, DRM_IOCTL_GET_CAP, &amp;cap);" style="text;whiteSpace=wrap;html=1;" parent="1" vertex="1">
          <mxGeometry x="-310" y="-1325" width="240" height="25" as="geometry" />
        </mxCell>
        <mxCell id="ozSf_emoWEw6sIMOIEAe-26" style="edgeStyle=orthogonalEdgeStyle;rounded=0;orthogonalLoop=1;jettySize=auto;html=1;exitX=1;exitY=0.5;exitDx=0;exitDy=0;entryX=0;entryY=0.5;entryDx=0;entryDy=0;" parent="1" source="ozSf_emoWEw6sIMOIEAe-21" target="ozSf_emoWEw6sIMOIEAe-10" edge="1">
          <mxGeometry relative="1" as="geometry" />
        </mxCell>
        <mxCell id="ozSf_emoWEw6sIMOIEAe-27" style="edgeStyle=orthogonalEdgeStyle;rounded=0;orthogonalLoop=1;jettySize=auto;html=1;exitX=1;exitY=0.5;exitDx=0;exitDy=0;entryX=0;entryY=0.5;entryDx=0;entryDy=0;" parent="1" source="ozSf_emoWEw6sIMOIEAe-21" target="ozSf_emoWEw6sIMOIEAe-6" edge="1">
          <mxGeometry relative="1" as="geometry" />
        </mxCell>
        <mxCell id="ozSf_emoWEw6sIMOIEAe-21" value="drmIoctl(fd, DRM_IOCTL_SET_CLIENT_CAP, &amp;cap)" style="text;whiteSpace=wrap;html=1;" parent="1" vertex="1">
          <mxGeometry x="-310" y="-1520" width="290" height="30" as="geometry" />
        </mxCell>
        <mxCell id="ozSf_emoWEw6sIMOIEAe-30" value="req-&gt;value = 1;" style="text;html=1;align=center;verticalAlign=middle;whiteSpace=wrap;rounded=0;" parent="1" vertex="1">
          <mxGeometry x="45" y="-1280" width="105" height="30" as="geometry" />
        </mxCell>
        <mxCell id="ozSf_emoWEw6sIMOIEAe-45" style="edgeStyle=orthogonalEdgeStyle;rounded=0;orthogonalLoop=1;jettySize=auto;html=1;exitX=1;exitY=0.5;exitDx=0;exitDy=0;" parent="1" source="ozSf_emoWEw6sIMOIEAe-41" target="ozSf_emoWEw6sIMOIEAe-42" edge="1">
          <mxGeometry relative="1" as="geometry" />
        </mxCell>
        <mxCell id="ozSf_emoWEw6sIMOIEAe-70" style="edgeStyle=orthogonalEdgeStyle;rounded=0;orthogonalLoop=1;jettySize=auto;html=1;exitX=0.5;exitY=1;exitDx=0;exitDy=0;entryX=0.5;entryY=0;entryDx=0;entryDy=0;" parent="1" source="ozSf_emoWEw6sIMOIEAe-41" target="ozSf_emoWEw6sIMOIEAe-47" edge="1">
          <mxGeometry relative="1" as="geometry" />
        </mxCell>
        <mxCell id="ozSf_emoWEw6sIMOIEAe-41" value="res = drmModeGetResources(fd)" style="text;whiteSpace=wrap;html=1;" parent="1" vertex="1">
          <mxGeometry x="-646" y="-1220" width="192" height="30" as="geometry" />
        </mxCell>
        <mxCell id="ozSf_emoWEw6sIMOIEAe-55" style="edgeStyle=orthogonalEdgeStyle;rounded=0;orthogonalLoop=1;jettySize=auto;html=1;exitX=1;exitY=0.5;exitDx=0;exitDy=0;entryX=0;entryY=0.5;entryDx=0;entryDy=0;" parent="1" source="ozSf_emoWEw6sIMOIEAe-42" target="ozSf_emoWEw6sIMOIEAe-50" edge="1">
          <mxGeometry relative="1" as="geometry" />
        </mxCell>
        <mxCell id="ozSf_emoWEw6sIMOIEAe-56" value="填充" style="edgeLabel;html=1;align=center;verticalAlign=middle;resizable=0;points=[];" parent="ozSf_emoWEw6sIMOIEAe-55" vertex="1" connectable="0">
          <mxGeometry x="-0.0987" y="-2" relative="1" as="geometry">
            <mxPoint as="offset" />
          </mxGeometry>
        </mxCell>
        <mxCell id="ozSf_emoWEw6sIMOIEAe-42" value="drmIoctl(fd, DRM_IOCTL_MODE_GETRESOURCES, &amp;res)" style="text;whiteSpace=wrap;html=1;" parent="1" vertex="1">
          <mxGeometry x="-354.62" y="-1220" width="329.25" height="30" as="geometry" />
        </mxCell>
        <mxCell id="ozSf_emoWEw6sIMOIEAe-59" style="edgeStyle=orthogonalEdgeStyle;rounded=0;orthogonalLoop=1;jettySize=auto;html=1;exitX=1;exitY=0.5;exitDx=0;exitDy=0;entryX=0;entryY=0.5;entryDx=0;entryDy=0;" parent="1" source="ozSf_emoWEw6sIMOIEAe-47" target="ozSf_emoWEw6sIMOIEAe-48" edge="1">
          <mxGeometry relative="1" as="geometry" />
        </mxCell>
        <mxCell id="ozSf_emoWEw6sIMOIEAe-71" style="edgeStyle=orthogonalEdgeStyle;rounded=0;orthogonalLoop=1;jettySize=auto;html=1;exitX=0.5;exitY=1;exitDx=0;exitDy=0;entryX=0.5;entryY=0;entryDx=0;entryDy=0;" parent="1" source="ozSf_emoWEw6sIMOIEAe-47" target="ozSf_emoWEw6sIMOIEAe-49" edge="1">
          <mxGeometry relative="1" as="geometry" />
        </mxCell>
        <mxCell id="ozSf_emoWEw6sIMOIEAe-47" value="drmModeGetConnector(fd, res-&gt;connectors[i])" style="text;whiteSpace=wrap;html=1;" parent="1" vertex="1">
          <mxGeometry x="-677" y="-1140" width="255" height="30" as="geometry" />
        </mxCell>
        <mxCell id="ozSf_emoWEw6sIMOIEAe-57" style="edgeStyle=orthogonalEdgeStyle;rounded=0;orthogonalLoop=1;jettySize=auto;html=1;exitX=1;exitY=0.5;exitDx=0;exitDy=0;entryX=0;entryY=0.5;entryDx=0;entryDy=0;" parent="1" source="ozSf_emoWEw6sIMOIEAe-48" target="ozSf_emoWEw6sIMOIEAe-54" edge="1">
          <mxGeometry relative="1" as="geometry" />
        </mxCell>
        <mxCell id="ozSf_emoWEw6sIMOIEAe-58" value="填充" style="edgeLabel;html=1;align=center;verticalAlign=middle;resizable=0;points=[];" parent="ozSf_emoWEw6sIMOIEAe-57" vertex="1" connectable="0">
          <mxGeometry x="-0.0791" y="5" relative="1" as="geometry">
            <mxPoint as="offset" />
          </mxGeometry>
        </mxCell>
        <mxCell id="hBJA5JrjO7JEtEhDDZ1C-5" style="edgeStyle=orthogonalEdgeStyle;rounded=0;orthogonalLoop=1;jettySize=auto;html=1;exitX=0.5;exitY=1;exitDx=0;exitDy=0;entryX=0.5;entryY=0;entryDx=0;entryDy=0;" parent="1" source="ozSf_emoWEw6sIMOIEAe-48" target="hBJA5JrjO7JEtEhDDZ1C-4" edge="1">
          <mxGeometry relative="1" as="geometry" />
        </mxCell>
        <mxCell id="ozSf_emoWEw6sIMOIEAe-48" value="drmIoctl(fd, DRM_IOCTL_MODE_GETCONNECTOR, &amp;conn)" style="text;whiteSpace=wrap;html=1;" parent="1" vertex="1">
          <mxGeometry x="-374.5" y="-1140" width="340" height="30" as="geometry" />
        </mxCell>
        <mxCell id="ozSf_emoWEw6sIMOIEAe-67" style="edgeStyle=orthogonalEdgeStyle;rounded=0;orthogonalLoop=1;jettySize=auto;html=1;exitX=1;exitY=0.5;exitDx=0;exitDy=0;entryX=0;entryY=0.5;entryDx=0;entryDy=0;" parent="1" source="ozSf_emoWEw6sIMOIEAe-49" target="ozSf_emoWEw6sIMOIEAe-60" edge="1">
          <mxGeometry relative="1" as="geometry" />
        </mxCell>
        <mxCell id="ozSf_emoWEw6sIMOIEAe-72" style="edgeStyle=orthogonalEdgeStyle;rounded=0;orthogonalLoop=1;jettySize=auto;html=1;exitX=0.5;exitY=1;exitDx=0;exitDy=0;entryX=0.5;entryY=0;entryDx=0;entryDy=0;" parent="1" source="ozSf_emoWEw6sIMOIEAe-49" target="ozSf_emoWEw6sIMOIEAe-61" edge="1">
          <mxGeometry relative="1" as="geometry" />
        </mxCell>
        <mxCell id="ozSf_emoWEw6sIMOIEAe-49" value="drmModeCreatePropertyBlob(fd, &amp;amp;out-&amp;gt;mode, sizeof(out-&amp;gt;mode), &amp;amp;out-&amp;gt;mode_blob_id)" style="text;whiteSpace=wrap;html=1;" parent="1" vertex="1">
          <mxGeometry x="-790" y="-530" width="480" height="30" as="geometry" />
        </mxCell>
        <mxCell id="ozSf_emoWEw6sIMOIEAe-50" value="typedef struct _drmModeRes {&lt;br&gt;&lt;br&gt;&amp;nbsp; &amp;nbsp; &amp;nbsp; &amp;nbsp; int count_fbs; &lt;font color=&quot;#b3b3b3&quot;&gt;// fb数量&lt;/font&gt;&lt;br&gt;&amp;nbsp; &amp;nbsp; &amp;nbsp; &amp;nbsp; uint32_t *fbs; &lt;font color=&quot;#b3b3b3&quot;&gt;// fb_id数组&lt;/font&gt;&lt;br&gt;&lt;br&gt;&amp;nbsp; &amp;nbsp; &amp;nbsp; &amp;nbsp; int count_crtcs;&lt;br&gt;&amp;nbsp; &amp;nbsp; &amp;nbsp; &amp;nbsp; uint32_t *crtcs;&lt;br&gt;&lt;br&gt;&amp;nbsp; &amp;nbsp; &amp;nbsp; &amp;nbsp; int count_connectors;&lt;br&gt;&amp;nbsp; &amp;nbsp; &amp;nbsp; &amp;nbsp; uint32_t *connectors;&lt;br&gt;&lt;br&gt;&amp;nbsp; &amp;nbsp; &amp;nbsp; &amp;nbsp; int count_encoders;&lt;br&gt;&amp;nbsp; &amp;nbsp; &amp;nbsp; &amp;nbsp; uint32_t *encoders;&lt;br&gt;&lt;br&gt;&amp;nbsp; &amp;nbsp; &amp;nbsp; &amp;nbsp; uint32_t min_width, max_width;&lt;br&gt;&amp;nbsp; &amp;nbsp; &amp;nbsp; &amp;nbsp; uint32_t min_height, max_height;&lt;br&gt;} drmModeRes, *drmModeResPtr;" style="text;whiteSpace=wrap;html=1;" parent="1" vertex="1">
          <mxGeometry x="270.5" y="-1370" width="220" height="260" as="geometry" />
        </mxCell>
        <mxCell id="ozSf_emoWEw6sIMOIEAe-54" value="typedef struct _drmModeConnector {&#xa;        uint32_t connector_id;&#xa;        uint32_t encoder_id; /**&lt; Encoder currently connected to */&#xa;        uint32_t connector_type;&#xa;        uint32_t connector_type_id;&#xa;        drmModeConnection connection;&#xa;        uint32_t mmWidth, mmHeight; /**&lt; HxW in millimeters */&#xa;        drmModeSubPixel subpixel;&#xa;&#xa;        int count_modes;&#xa;        drmModeModeInfoPtr modes;&#xa;&#xa;        int count_props;&#xa;        uint32_t *props; /**&lt; List of property ids */&#xa;        uint64_t *prop_values; /**&lt; List of property values */&#xa;&#xa;        int count_encoders;&#xa;        uint32_t *encoders; /**&lt; List of encoder ids */&#xa;} drmModeConnector, *drmModeConnectorPtr;" style="text;whiteSpace=wrap;html=1;" parent="1" vertex="1">
          <mxGeometry x="500.5" y="-1230" width="345" height="290" as="geometry" />
        </mxCell>
        <mxCell id="ozSf_emoWEw6sIMOIEAe-60" value=" DRM_IOCTL(fd, DRM_IOCTL_MODE_CREATEPROPBLOB, &amp;create)" style="text;whiteSpace=wrap;html=1;" parent="1" vertex="1">
          <mxGeometry x="-274.5" y="-530" width="390" height="30" as="geometry" />
        </mxCell>
        <mxCell id="ozSf_emoWEw6sIMOIEAe-68" style="edgeStyle=orthogonalEdgeStyle;rounded=0;orthogonalLoop=1;jettySize=auto;html=1;exitX=1;exitY=0.5;exitDx=0;exitDy=0;entryX=0;entryY=0.5;entryDx=0;entryDy=0;" parent="1" source="ozSf_emoWEw6sIMOIEAe-61" target="ozSf_emoWEw6sIMOIEAe-63" edge="1">
          <mxGeometry relative="1" as="geometry" />
        </mxCell>
        <mxCell id="ozSf_emoWEw6sIMOIEAe-74" style="edgeStyle=orthogonalEdgeStyle;rounded=0;orthogonalLoop=1;jettySize=auto;html=1;exitX=0.5;exitY=1;exitDx=0;exitDy=0;entryX=0.5;entryY=0;entryDx=0;entryDy=0;" parent="1" source="ozSf_emoWEw6sIMOIEAe-61" target="ozSf_emoWEw6sIMOIEAe-73" edge="1">
          <mxGeometry relative="1" as="geometry" />
        </mxCell>
        <mxCell id="ozSf_emoWEw6sIMOIEAe-61" value="drmModeGetEncoder" style="text;whiteSpace=wrap;html=1;" parent="1" vertex="1">
          <mxGeometry x="-618.25" y="-470" width="136.5" height="30" as="geometry" />
        </mxCell>
        <mxCell id="ozSf_emoWEw6sIMOIEAe-65" style="edgeStyle=orthogonalEdgeStyle;rounded=0;orthogonalLoop=1;jettySize=auto;html=1;exitX=1;exitY=0.5;exitDx=0;exitDy=0;entryX=0;entryY=0.5;entryDx=0;entryDy=0;" parent="1" source="ozSf_emoWEw6sIMOIEAe-63" target="ozSf_emoWEw6sIMOIEAe-64" edge="1">
          <mxGeometry relative="1" as="geometry" />
        </mxCell>
        <mxCell id="ozSf_emoWEw6sIMOIEAe-66" value="填充" style="edgeLabel;html=1;align=center;verticalAlign=middle;resizable=0;points=[];" parent="ozSf_emoWEw6sIMOIEAe-65" vertex="1" connectable="0">
          <mxGeometry x="-0.2723" y="3" relative="1" as="geometry">
            <mxPoint as="offset" />
          </mxGeometry>
        </mxCell>
        <mxCell id="ozSf_emoWEw6sIMOIEAe-63" value="drmIoctl(fd, DRM_IOCTL_MODE_GETENCODER, &amp;enc)" style="text;html=1;align=center;verticalAlign=middle;whiteSpace=wrap;rounded=0;" parent="1" vertex="1">
          <mxGeometry x="-384.5" y="-470" width="360" height="30" as="geometry" />
        </mxCell>
        <mxCell id="ozSf_emoWEw6sIMOIEAe-64" value="typedef struct _drmModeEncoder {&#xa;        uint32_t encoder_id;&#xa;        uint32_t encoder_type;&#xa;        uint32_t crtc_id;&#xa;        uint32_t possible_crtcs;&#xa;        uint32_t possible_clones;&#xa;} drmModeEncoder, *drmModeEncoderPtr;" style="text;whiteSpace=wrap;html=1;" parent="1" vertex="1">
          <mxGeometry x="150" y="-515" width="245" height="120" as="geometry" />
        </mxCell>
        <mxCell id="ozSf_emoWEw6sIMOIEAe-79" style="edgeStyle=orthogonalEdgeStyle;rounded=0;orthogonalLoop=1;jettySize=auto;html=1;exitX=1;exitY=0.5;exitDx=0;exitDy=0;entryX=0;entryY=0.5;entryDx=0;entryDy=0;" parent="1" source="ozSf_emoWEw6sIMOIEAe-73" target="ozSf_emoWEw6sIMOIEAe-75" edge="1">
          <mxGeometry relative="1" as="geometry" />
        </mxCell>
        <mxCell id="ozSf_emoWEw6sIMOIEAe-84" style="edgeStyle=orthogonalEdgeStyle;rounded=0;orthogonalLoop=1;jettySize=auto;html=1;exitX=0.5;exitY=1;exitDx=0;exitDy=0;entryX=0.5;entryY=0;entryDx=0;entryDy=0;" parent="1" source="ozSf_emoWEw6sIMOIEAe-73" target="ozSf_emoWEw6sIMOIEAe-76" edge="1">
          <mxGeometry relative="1" as="geometry" />
        </mxCell>
        <mxCell id="ozSf_emoWEw6sIMOIEAe-73" value="drmModeGetPlaneResources" style="text;whiteSpace=wrap;html=1;" parent="1" vertex="1">
          <mxGeometry x="-634.75" y="-400" width="170.5" height="30" as="geometry" />
        </mxCell>
        <mxCell id="ozSf_emoWEw6sIMOIEAe-75" value="drmIoctl(fd, DRM_IOCTL_MODE_GETPLANERESOURCES, &amp;res)" style="text;whiteSpace=wrap;html=1;" parent="1" vertex="1">
          <mxGeometry x="-372.49" y="-397.5" width="365" height="25" as="geometry" />
        </mxCell>
        <mxCell id="ozSf_emoWEw6sIMOIEAe-83" style="edgeStyle=orthogonalEdgeStyle;rounded=0;orthogonalLoop=1;jettySize=auto;html=1;exitX=1;exitY=0.5;exitDx=0;exitDy=0;entryX=0;entryY=0.5;entryDx=0;entryDy=0;" parent="1" source="ozSf_emoWEw6sIMOIEAe-76" target="ozSf_emoWEw6sIMOIEAe-78" edge="1">
          <mxGeometry relative="1" as="geometry" />
        </mxCell>
        <mxCell id="ozSf_emoWEw6sIMOIEAe-92" style="edgeStyle=orthogonalEdgeStyle;rounded=0;orthogonalLoop=1;jettySize=auto;html=1;exitX=0.5;exitY=1;exitDx=0;exitDy=0;entryX=0.5;entryY=0;entryDx=0;entryDy=0;" parent="1" source="ozSf_emoWEw6sIMOIEAe-76" target="ozSf_emoWEw6sIMOIEAe-85" edge="1">
          <mxGeometry relative="1" as="geometry" />
        </mxCell>
        <mxCell id="ozSf_emoWEw6sIMOIEAe-76" value="drmModeGetPlane" style="text;whiteSpace=wrap;html=1;" parent="1" vertex="1">
          <mxGeometry x="-607.25" y="-350" width="114.5" height="30" as="geometry" />
        </mxCell>
        <mxCell id="ozSf_emoWEw6sIMOIEAe-77" value="得到plane_counts和plane_id数组" style="text;html=1;align=center;verticalAlign=middle;resizable=0;points=[];autosize=1;strokeColor=none;fillColor=none;" parent="1" vertex="1">
          <mxGeometry x="22.869999999999997" y="-397.5" width="200" height="30" as="geometry" />
        </mxCell>
        <mxCell id="ozSf_emoWEw6sIMOIEAe-78" value="drmIoctl(fd, DRM_IOCTL_MODE_GETPLANE, &amp;ovr)" style="text;whiteSpace=wrap;html=1;" parent="1" vertex="1">
          <mxGeometry x="-359.5" y="-350" width="290" height="30" as="geometry" />
        </mxCell>
        <mxCell id="ozSf_emoWEw6sIMOIEAe-93" style="edgeStyle=orthogonalEdgeStyle;rounded=0;orthogonalLoop=1;jettySize=auto;html=1;exitX=0.5;exitY=1;exitDx=0;exitDy=0;entryX=0.5;entryY=0;entryDx=0;entryDy=0;" parent="1" source="ozSf_emoWEw6sIMOIEAe-85" target="ozSf_emoWEw6sIMOIEAe-86" edge="1">
          <mxGeometry relative="1" as="geometry" />
        </mxCell>
        <mxCell id="ozSf_emoWEw6sIMOIEAe-85" value="drmModeObjectGetProperties(fd, plane_id, DRM_MODE_OBJECT_PLANE)" style="text;whiteSpace=wrap;html=1;" parent="1" vertex="1">
          <mxGeometry x="-760" y="-290" width="420" height="30" as="geometry" />
        </mxCell>
        <mxCell id="ozSf_emoWEw6sIMOIEAe-94" style="edgeStyle=orthogonalEdgeStyle;rounded=0;orthogonalLoop=1;jettySize=auto;html=1;exitX=0.5;exitY=1;exitDx=0;exitDy=0;entryX=0.5;entryY=0;entryDx=0;entryDy=0;" parent="1" source="ozSf_emoWEw6sIMOIEAe-86" target="ozSf_emoWEw6sIMOIEAe-88" edge="1">
          <mxGeometry relative="1" as="geometry" />
        </mxCell>
        <mxCell id="ozSf_emoWEw6sIMOIEAe-86" value="drmModeObjectGetProperties(fd, plane_id, DRM_MODE_OBJECT_CONNECTOR)" style="text;whiteSpace=wrap;html=1;" parent="1" vertex="1">
          <mxGeometry x="-773.37" y="-240" width="450" height="30" as="geometry" />
        </mxCell>
        <mxCell id="ozSf_emoWEw6sIMOIEAe-87" value="drmIoctl(fd, DRM_IOCTL_MODE_OBJ_GETPROPERTIES, &amp;properties)" style="text;whiteSpace=wrap;html=1;" parent="1" vertex="1">
          <mxGeometry x="-224.5" y="-260" width="400" height="30" as="geometry" />
        </mxCell>
        <mxCell id="ozSf_emoWEw6sIMOIEAe-95" style="edgeStyle=orthogonalEdgeStyle;rounded=0;orthogonalLoop=1;jettySize=auto;html=1;exitX=0.5;exitY=1;exitDx=0;exitDy=0;entryX=0.5;entryY=0;entryDx=0;entryDy=0;" parent="1" source="ozSf_emoWEw6sIMOIEAe-88" target="ozSf_emoWEw6sIMOIEAe-89" edge="1">
          <mxGeometry relative="1" as="geometry" />
        </mxCell>
        <mxCell id="ozSf_emoWEw6sIMOIEAe-88" value="drmModeObjectGetProperties(fd, plane_id, DRM_MODE_OBJECT_CRTC)" style="text;whiteSpace=wrap;html=1;" parent="1" vertex="1">
          <mxGeometry x="-760" y="-190" width="420" height="30" as="geometry" />
        </mxCell>
        <mxCell id="OpuFSFoiAB805dbF5H-I-6" style="edgeStyle=orthogonalEdgeStyle;rounded=0;orthogonalLoop=1;jettySize=auto;html=1;exitX=1;exitY=0.5;exitDx=0;exitDy=0;entryX=0;entryY=0.5;entryDx=0;entryDy=0;" parent="1" source="ozSf_emoWEw6sIMOIEAe-89" target="OpuFSFoiAB805dbF5H-I-5" edge="1">
          <mxGeometry relative="1" as="geometry" />
        </mxCell>
        <mxCell id="OpuFSFoiAB805dbF5H-I-9" style="edgeStyle=orthogonalEdgeStyle;rounded=0;orthogonalLoop=1;jettySize=auto;html=1;exitX=1;exitY=0.5;exitDx=0;exitDy=0;entryX=0;entryY=0.5;entryDx=0;entryDy=0;" parent="1" source="ozSf_emoWEw6sIMOIEAe-89" target="OpuFSFoiAB805dbF5H-I-7" edge="1">
          <mxGeometry relative="1" as="geometry" />
        </mxCell>
        <mxCell id="OpuFSFoiAB805dbF5H-I-10" style="edgeStyle=orthogonalEdgeStyle;rounded=0;orthogonalLoop=1;jettySize=auto;html=1;exitX=1;exitY=0.5;exitDx=0;exitDy=0;entryX=0;entryY=0.5;entryDx=0;entryDy=0;" parent="1" source="ozSf_emoWEw6sIMOIEAe-89" target="OpuFSFoiAB805dbF5H-I-8" edge="1">
          <mxGeometry relative="1" as="geometry" />
        </mxCell>
        <mxCell id="OpuFSFoiAB805dbF5H-I-16" style="edgeStyle=orthogonalEdgeStyle;rounded=0;orthogonalLoop=1;jettySize=auto;html=1;exitX=0.5;exitY=1;exitDx=0;exitDy=0;entryX=0.5;entryY=0;entryDx=0;entryDy=0;" parent="1" source="ozSf_emoWEw6sIMOIEAe-89" target="OpuFSFoiAB805dbF5H-I-15" edge="1">
          <mxGeometry relative="1" as="geometry" />
        </mxCell>
        <mxCell id="ozSf_emoWEw6sIMOIEAe-89" value="modeset_create_fb" style="text;whiteSpace=wrap;html=1;" parent="1" vertex="1">
          <mxGeometry x="-607.25" y="-140" width="117.75" height="30" as="geometry" />
        </mxCell>
        <mxCell id="ozSf_emoWEw6sIMOIEAe-91" style="edgeStyle=orthogonalEdgeStyle;rounded=0;orthogonalLoop=1;jettySize=auto;html=1;exitX=1;exitY=0.5;exitDx=0;exitDy=0;entryX=0;entryY=0.5;entryDx=0;entryDy=0;" parent="1" source="ozSf_emoWEw6sIMOIEAe-90" target="3mboC_igE18zgCTg4L_F-4" edge="1">
          <mxGeometry relative="1" as="geometry" />
        </mxCell>
        <mxCell id="ozSf_emoWEw6sIMOIEAe-90" value="DRM_IOCTL(fd, DRM_IOCTL_MODE_ATOMIC, &amp;atomic)" style="text;whiteSpace=wrap;html=1;" parent="1" vertex="1">
          <mxGeometry x="-360.5" y="22.5" width="320.5" height="25" as="geometry" />
        </mxCell>
        <mxCell id="ozSf_emoWEw6sIMOIEAe-98" style="edgeStyle=orthogonalEdgeStyle;rounded=0;orthogonalLoop=1;jettySize=auto;html=1;exitX=1;exitY=0.5;exitDx=0;exitDy=0;entryX=0;entryY=0.5;entryDx=0;entryDy=0;" parent="1" source="ozSf_emoWEw6sIMOIEAe-96" target="ozSf_emoWEw6sIMOIEAe-90" edge="1">
          <mxGeometry relative="1" as="geometry" />
        </mxCell>
        <mxCell id="OpuFSFoiAB805dbF5H-I-19" style="edgeStyle=orthogonalEdgeStyle;rounded=0;orthogonalLoop=1;jettySize=auto;html=1;exitX=0.5;exitY=1;exitDx=0;exitDy=0;" parent="1" source="ozSf_emoWEw6sIMOIEAe-96" target="OpuFSFoiAB805dbF5H-I-18" edge="1">
          <mxGeometry relative="1" as="geometry" />
        </mxCell>
        <mxCell id="ozSf_emoWEw6sIMOIEAe-96" value="drmModeAtomicCommit" style="text;whiteSpace=wrap;html=1;" parent="1" vertex="1">
          <mxGeometry x="-616.5" y="22.5" width="135.25" height="25" as="geometry" />
        </mxCell>
        <mxCell id="ozSf_emoWEw6sIMOIEAe-99" value="plane_helper_funcs-&amp;gt;begin_fb_access" style="text;whiteSpace=wrap;html=1;fontColor=#FF3333;" parent="1" vertex="1">
          <mxGeometry x="682" y="365" width="210" height="30" as="geometry" />
        </mxCell>
        <mxCell id="OpuFSFoiAB805dbF5H-I-4" style="edgeStyle=orthogonalEdgeStyle;rounded=0;orthogonalLoop=1;jettySize=auto;html=1;exitX=0.5;exitY=1;exitDx=0;exitDy=0;entryX=0.5;entryY=0;entryDx=0;entryDy=0;" parent="1" source="OpuFSFoiAB805dbF5H-I-1" target="OpuFSFoiAB805dbF5H-I-3" edge="1">
          <mxGeometry relative="1" as="geometry" />
        </mxCell>
        <mxCell id="OpuFSFoiAB805dbF5H-I-1" value="prepare_signaling" style="text;whiteSpace=wrap;html=1;" parent="1" vertex="1">
          <mxGeometry x="32" y="111.25" width="108.25" height="23.75" as="geometry" />
        </mxCell>
        <mxCell id="OpuFSFoiAB805dbF5H-I-3" value="create_vblank_event" style="text;whiteSpace=wrap;html=1;" parent="1" vertex="1">
          <mxGeometry x="27.370000000000005" y="157.5" width="117.5" height="27.5" as="geometry" />
        </mxCell>
        <mxCell id="OpuFSFoiAB805dbF5H-I-5" value="drmIoctl(fd, DRM_IOCTL_MODE_CREATE_DUMB, &amp;creq)" style="text;whiteSpace=wrap;html=1;" parent="1" vertex="1">
          <mxGeometry x="-343.62" y="-170" width="318.25" height="30" as="geometry" />
        </mxCell>
        <mxCell id="OpuFSFoiAB805dbF5H-I-7" value="DRM_IOCTL(fd, DRM_IOCTL_MODE_ADDFB2, &amp;f)" style="text;whiteSpace=wrap;html=1;" parent="1" vertex="1">
          <mxGeometry x="-343.62" y="-140" width="287.99" height="30" as="geometry" />
        </mxCell>
        <mxCell id="OpuFSFoiAB805dbF5H-I-8" value="drmIoctl(fd, DRM_IOCTL_MODE_MAP_DUMB, &amp;mreq);" style="text;whiteSpace=wrap;html=1;" parent="1" vertex="1">
          <mxGeometry x="-343.62" y="-110" width="320.5" height="30" as="geometry" />
        </mxCell>
        <mxCell id="OpuFSFoiAB805dbF5H-I-11" value="&amp;nbsp; &amp;nbsp; &amp;nbsp; &amp;nbsp; buf-&amp;gt;map = mmap(0, buf-&amp;gt;size, PROT_READ | PROT_WRITE, MAP_SHARED, fd, mreq.offset);" style="text;whiteSpace=wrap;html=1;" parent="1" vertex="1">
          <mxGeometry x="60.5" y="-140" width="550" height="30" as="geometry" />
        </mxCell>
        <mxCell id="OpuFSFoiAB805dbF5H-I-12" value="" style="endArrow=classic;html=1;rounded=0;entryX=0;entryY=0.5;entryDx=0;entryDy=0;" parent="1" target="OpuFSFoiAB805dbF5H-I-11" edge="1">
          <mxGeometry width="50" height="50" relative="1" as="geometry">
            <mxPoint x="-9.5" y="-125" as="sourcePoint" />
            <mxPoint x="130.5" y="-210" as="targetPoint" />
          </mxGeometry>
        </mxCell>
        <mxCell id="OpuFSFoiAB805dbF5H-I-13" value="drmIoctl(fd, DRM_IOCTL_MODE_GETPROPERTY, &amp;prop);" style="text;whiteSpace=wrap;html=1;" parent="1" vertex="1">
          <mxGeometry x="-224.5" y="-230" width="330" height="30" as="geometry" />
        </mxCell>
        <mxCell id="OpuFSFoiAB805dbF5H-I-14" value="" style="endArrow=classic;html=1;rounded=0;" parent="1" edge="1">
          <mxGeometry width="50" height="50" relative="1" as="geometry">
            <mxPoint x="-309.5" y="-230" as="sourcePoint" />
            <mxPoint x="-249.5" y="-230" as="targetPoint" />
          </mxGeometry>
        </mxCell>
        <mxCell id="OpuFSFoiAB805dbF5H-I-17" style="edgeStyle=orthogonalEdgeStyle;rounded=0;orthogonalLoop=1;jettySize=auto;html=1;exitX=0.5;exitY=1;exitDx=0;exitDy=0;entryX=0.5;entryY=0;entryDx=0;entryDy=0;" parent="1" source="OpuFSFoiAB805dbF5H-I-15" target="ozSf_emoWEw6sIMOIEAe-96" edge="1">
          <mxGeometry relative="1" as="geometry" />
        </mxCell>
        <mxCell id="OpuFSFoiAB805dbF5H-I-15" value="modeset_paint_framebuffer" style="text;whiteSpace=wrap;html=1;" parent="1" vertex="1">
          <mxGeometry x="-625.87" y="-50" width="155" height="30" as="geometry" />
        </mxCell>
        <mxCell id="OpuFSFoiAB805dbF5H-I-24" style="edgeStyle=orthogonalEdgeStyle;rounded=0;orthogonalLoop=1;jettySize=auto;html=1;exitX=0.5;exitY=1;exitDx=0;exitDy=0;entryX=0.5;entryY=0;entryDx=0;entryDy=0;" parent="1" source="OpuFSFoiAB805dbF5H-I-18" target="OpuFSFoiAB805dbF5H-I-23" edge="1">
          <mxGeometry relative="1" as="geometry" />
        </mxCell>
        <mxCell id="OpuFSFoiAB805dbF5H-I-18" value="drmHandleEvent" style="text;whiteSpace=wrap;html=1;" parent="1" vertex="1">
          <mxGeometry x="-598.37" y="130" width="100" height="30" as="geometry" />
        </mxCell>
        <mxCell id="OpuFSFoiAB805dbF5H-I-26" style="edgeStyle=orthogonalEdgeStyle;rounded=0;orthogonalLoop=1;jettySize=auto;html=1;exitX=0.5;exitY=1;exitDx=0;exitDy=0;entryX=0.5;entryY=0;entryDx=0;entryDy=0;" parent="1" source="OpuFSFoiAB805dbF5H-I-23" target="OpuFSFoiAB805dbF5H-I-25" edge="1">
          <mxGeometry relative="1" as="geometry" />
        </mxCell>
        <mxCell id="OpuFSFoiAB805dbF5H-I-23" value="modeset_paint_framebuffer" style="text;whiteSpace=wrap;html=1;" parent="1" vertex="1">
          <mxGeometry x="-625.87" y="185" width="155" height="30" as="geometry" />
        </mxCell>
        <mxCell id="OpuFSFoiAB805dbF5H-I-25" value="drmModeAtomicCommit" style="text;whiteSpace=wrap;html=1;" parent="1" vertex="1">
          <mxGeometry x="-616" y="235" width="135.25" height="25" as="geometry" />
        </mxCell>
        <mxCell id="OpuFSFoiAB805dbF5H-I-29" value="" style="curved=1;endArrow=classic;html=1;rounded=0;exitX=0.5;exitY=1;exitDx=0;exitDy=0;" parent="1" source="OpuFSFoiAB805dbF5H-I-25" edge="1">
          <mxGeometry width="50" height="50" relative="1" as="geometry">
            <mxPoint x="-400" y="250" as="sourcePoint" />
            <mxPoint x="-548" y="100" as="targetPoint" />
            <Array as="points">
              <mxPoint x="-670" y="270" />
              <mxPoint x="-750" y="240" />
              <mxPoint x="-710" y="150" />
              <mxPoint x="-640" y="90" />
            </Array>
          </mxGeometry>
        </mxCell>
        <mxCell id="OpuFSFoiAB805dbF5H-I-30" value="while loop" style="edgeLabel;html=1;align=center;verticalAlign=middle;resizable=0;points=[];" parent="OpuFSFoiAB805dbF5H-I-29" vertex="1" connectable="0">
          <mxGeometry x="0.2234" y="-4" relative="1" as="geometry">
            <mxPoint as="offset" />
          </mxGeometry>
        </mxCell>
        <mxCell id="SGbNxjFCH1gDrcXbBLk8-4" style="edgeStyle=orthogonalEdgeStyle;rounded=0;orthogonalLoop=1;jettySize=auto;html=1;exitX=0.5;exitY=1;exitDx=0;exitDy=0;entryX=0.5;entryY=0;entryDx=0;entryDy=0;" parent="1" source="SGbNxjFCH1gDrcXbBLk8-1" target="SGbNxjFCH1gDrcXbBLk8-3" edge="1">
          <mxGeometry relative="1" as="geometry" />
        </mxCell>
        <mxCell id="SGbNxjFCH1gDrcXbBLk8-1" value="mode_valid" style="text;whiteSpace=wrap;html=1;" parent="1" vertex="1">
          <mxGeometry x="-38" y="445" width="70" height="30" as="geometry" />
        </mxCell>
        <mxCell id="SGbNxjFCH1gDrcXbBLk8-8" style="edgeStyle=orthogonalEdgeStyle;rounded=0;orthogonalLoop=1;jettySize=auto;html=1;exitX=0.5;exitY=1;exitDx=0;exitDy=0;entryX=0.5;entryY=0;entryDx=0;entryDy=0;" parent="1" source="SGbNxjFCH1gDrcXbBLk8-3" target="SGbNxjFCH1gDrcXbBLk8-5" edge="1">
          <mxGeometry relative="1" as="geometry" />
        </mxCell>
        <mxCell id="SGbNxjFCH1gDrcXbBLk8-3" value="mode_valid_path" style="text;whiteSpace=wrap;html=1;" parent="1" vertex="1">
          <mxGeometry x="-53" y="495" width="100" height="30" as="geometry" />
        </mxCell>
        <mxCell id="SGbNxjFCH1gDrcXbBLk8-9" style="edgeStyle=orthogonalEdgeStyle;rounded=0;orthogonalLoop=1;jettySize=auto;html=1;exitX=0.5;exitY=1;exitDx=0;exitDy=0;entryX=0.5;entryY=0;entryDx=0;entryDy=0;" parent="1" source="SGbNxjFCH1gDrcXbBLk8-5" target="SGbNxjFCH1gDrcXbBLk8-6" edge="1">
          <mxGeometry relative="1" as="geometry" />
        </mxCell>
        <mxCell id="SGbNxjFCH1gDrcXbBLk8-5" value="&lt;font color=&quot;#ff3333&quot;&gt;&lt;span style=&quot;text-wrap: nowrap;&quot;&gt;encoder_funcs-&amp;gt;mode_valid&lt;/span&gt;&lt;/font&gt;" style="text;html=1;align=center;verticalAlign=middle;whiteSpace=wrap;rounded=0;" parent="1" vertex="1">
          <mxGeometry x="-88" y="535" width="170" height="30" as="geometry" />
        </mxCell>
        <mxCell id="SGbNxjFCH1gDrcXbBLk8-10" style="edgeStyle=orthogonalEdgeStyle;rounded=0;orthogonalLoop=1;jettySize=auto;html=1;exitX=0.5;exitY=1;exitDx=0;exitDy=0;entryX=0.5;entryY=0;entryDx=0;entryDy=0;" parent="1" source="SGbNxjFCH1gDrcXbBLk8-6" target="SGbNxjFCH1gDrcXbBLk8-7" edge="1">
          <mxGeometry relative="1" as="geometry" />
        </mxCell>
        <mxCell id="SGbNxjFCH1gDrcXbBLk8-6" value="&lt;font color=&quot;#ff3333&quot;&gt;&lt;span style=&quot;text-wrap: nowrap;&quot;&gt;bridge-&amp;gt;funcs-&amp;gt;mode_valid&lt;/span&gt;&lt;/font&gt;" style="text;html=1;align=center;verticalAlign=middle;whiteSpace=wrap;rounded=0;" parent="1" vertex="1">
          <mxGeometry x="-88" y="574.5" width="170" height="30" as="geometry" />
        </mxCell>
        <mxCell id="SGbNxjFCH1gDrcXbBLk8-12" style="edgeStyle=orthogonalEdgeStyle;rounded=0;orthogonalLoop=1;jettySize=auto;html=1;exitX=0.5;exitY=1;exitDx=0;exitDy=0;entryX=0.5;entryY=0;entryDx=0;entryDy=0;" parent="1" source="SGbNxjFCH1gDrcXbBLk8-7" target="SGbNxjFCH1gDrcXbBLk8-11" edge="1">
          <mxGeometry relative="1" as="geometry" />
        </mxCell>
        <mxCell id="SGbNxjFCH1gDrcXbBLk8-7" value="&lt;font color=&quot;#ff3333&quot;&gt;&lt;span style=&quot;text-wrap: nowrap;&quot;&gt;crtc_funcs-&amp;gt;mode_valid&lt;/span&gt;&lt;/font&gt;" style="text;html=1;align=center;verticalAlign=middle;whiteSpace=wrap;rounded=0;" parent="1" vertex="1">
          <mxGeometry x="-88" y="615.25" width="170" height="30" as="geometry" />
        </mxCell>
        <mxCell id="SGbNxjFCH1gDrcXbBLk8-23" style="edgeStyle=orthogonalEdgeStyle;rounded=0;orthogonalLoop=1;jettySize=auto;html=1;exitX=0.5;exitY=1;exitDx=0;exitDy=0;entryX=0.5;entryY=0;entryDx=0;entryDy=0;" parent="1" source="SGbNxjFCH1gDrcXbBLk8-11" target="SGbNxjFCH1gDrcXbBLk8-19" edge="1">
          <mxGeometry relative="1" as="geometry" />
        </mxCell>
        <mxCell id="SGbNxjFCH1gDrcXbBLk8-11" value="mode_fixup" style="text;whiteSpace=wrap;html=1;" parent="1" vertex="1">
          <mxGeometry x="-38" y="659.75" width="70" height="30" as="geometry" />
        </mxCell>
        <mxCell id="SGbNxjFCH1gDrcXbBLk8-17" style="edgeStyle=orthogonalEdgeStyle;rounded=0;orthogonalLoop=1;jettySize=auto;html=1;exitX=0.5;exitY=1;exitDx=0;exitDy=0;entryX=0.5;entryY=0;entryDx=0;entryDy=0;" parent="1" source="SGbNxjFCH1gDrcXbBLk8-13" target="SGbNxjFCH1gDrcXbBLk8-14" edge="1">
          <mxGeometry relative="1" as="geometry" />
        </mxCell>
        <mxCell id="SGbNxjFCH1gDrcXbBLk8-13" value="&lt;font color=&quot;#ff3333&quot;&gt;&lt;span style=&quot;text-wrap: nowrap;&quot;&gt;encoder_funcs-&amp;gt;atomic_check&lt;/span&gt;&lt;/font&gt;" style="text;html=1;align=center;verticalAlign=middle;whiteSpace=wrap;rounded=0;" parent="1" vertex="1">
          <mxGeometry x="-88" y="780.25" width="170" height="30" as="geometry" />
        </mxCell>
        <mxCell id="SGbNxjFCH1gDrcXbBLk8-18" style="edgeStyle=orthogonalEdgeStyle;rounded=0;orthogonalLoop=1;jettySize=auto;html=1;exitX=0.5;exitY=1;exitDx=0;exitDy=0;entryX=0.5;entryY=0;entryDx=0;entryDy=0;" parent="1" source="SGbNxjFCH1gDrcXbBLk8-14" target="SGbNxjFCH1gDrcXbBLk8-15" edge="1">
          <mxGeometry relative="1" as="geometry" />
        </mxCell>
        <mxCell id="SGbNxjFCH1gDrcXbBLk8-14" value="&lt;font color=&quot;#ff3333&quot;&gt;&lt;span style=&quot;text-wrap: nowrap;&quot;&gt;encoder_funcs-&amp;gt;mode_fixup&lt;/span&gt;&lt;/font&gt;" style="text;html=1;align=center;verticalAlign=middle;whiteSpace=wrap;rounded=0;" parent="1" vertex="1">
          <mxGeometry x="-88" y="820.25" width="170" height="30" as="geometry" />
        </mxCell>
        <mxCell id="SGbNxjFCH1gDrcXbBLk8-15" value="&lt;font color=&quot;#ff3333&quot;&gt;&lt;span style=&quot;text-wrap: nowrap;&quot;&gt;crtc_funcs-&amp;gt;mode_fixup&lt;/span&gt;&lt;/font&gt;" style="text;html=1;align=center;verticalAlign=middle;whiteSpace=wrap;rounded=0;" parent="1" vertex="1">
          <mxGeometry x="-88" y="860.25" width="170" height="30" as="geometry" />
        </mxCell>
        <mxCell id="SGbNxjFCH1gDrcXbBLk8-21" style="edgeStyle=orthogonalEdgeStyle;rounded=0;orthogonalLoop=1;jettySize=auto;html=1;exitX=0.5;exitY=1;exitDx=0;exitDy=0;entryX=0.5;entryY=0;entryDx=0;entryDy=0;" parent="1" source="SGbNxjFCH1gDrcXbBLk8-19" target="SGbNxjFCH1gDrcXbBLk8-20" edge="1">
          <mxGeometry relative="1" as="geometry" />
        </mxCell>
        <mxCell id="SGbNxjFCH1gDrcXbBLk8-19" value="&lt;font color=&quot;#ff3333&quot;&gt;&lt;span style=&quot;text-wrap: nowrap;&quot;&gt;bridge-&amp;gt;funcs-&amp;gt;atomic_check&lt;/span&gt;&lt;/font&gt;" style="text;html=1;align=center;verticalAlign=middle;whiteSpace=wrap;rounded=0;" parent="1" vertex="1">
          <mxGeometry x="-88" y="700.25" width="170" height="30" as="geometry" />
        </mxCell>
        <mxCell id="SGbNxjFCH1gDrcXbBLk8-22" style="edgeStyle=orthogonalEdgeStyle;rounded=0;orthogonalLoop=1;jettySize=auto;html=1;exitX=0.5;exitY=1;exitDx=0;exitDy=0;entryX=0.5;entryY=0;entryDx=0;entryDy=0;" parent="1" source="SGbNxjFCH1gDrcXbBLk8-20" target="SGbNxjFCH1gDrcXbBLk8-13" edge="1">
          <mxGeometry relative="1" as="geometry" />
        </mxCell>
        <mxCell id="SGbNxjFCH1gDrcXbBLk8-20" value="&lt;font color=&quot;#ff3333&quot;&gt;&lt;span style=&quot;text-wrap: nowrap;&quot;&gt;bridge-&amp;gt;funcs-&amp;gt;mode_fixup&lt;/span&gt;&lt;/font&gt;" style="text;html=1;align=center;verticalAlign=middle;whiteSpace=wrap;rounded=0;" parent="1" vertex="1">
          <mxGeometry x="-88" y="740.25" width="170" height="30" as="geometry" />
        </mxCell>
        <mxCell id="SGbNxjFCH1gDrcXbBLk8-37" style="edgeStyle=orthogonalEdgeStyle;rounded=0;orthogonalLoop=1;jettySize=auto;html=1;exitX=0.5;exitY=1;exitDx=0;exitDy=0;entryX=0.5;entryY=0;entryDx=0;entryDy=0;" parent="1" source="SGbNxjFCH1gDrcXbBLk8-25" target="SGbNxjFCH1gDrcXbBLk8-31" edge="1">
          <mxGeometry relative="1" as="geometry" />
        </mxCell>
        <mxCell id="SGbNxjFCH1gDrcXbBLk8-25" value="drm_atomic_helper_commit_modeset_disables" style="text;whiteSpace=wrap;html=1;verticalAlign=middle;" parent="1" vertex="1">
          <mxGeometry x="140.25" y="600.75" width="260" height="30" as="geometry" />
        </mxCell>
        <mxCell id="SGbNxjFCH1gDrcXbBLk8-30" style="edgeStyle=orthogonalEdgeStyle;rounded=0;orthogonalLoop=1;jettySize=auto;html=1;exitX=0.5;exitY=1;exitDx=0;exitDy=0;entryX=0.5;entryY=0;entryDx=0;entryDy=0;" parent="1" source="SGbNxjFCH1gDrcXbBLk8-27" target="SGbNxjFCH1gDrcXbBLk8-29" edge="1">
          <mxGeometry relative="1" as="geometry" />
        </mxCell>
        <mxCell id="SGbNxjFCH1gDrcXbBLk8-27" value="crtc_set_mode" style="text;whiteSpace=wrap;html=1;verticalAlign=middle;" parent="1" vertex="1">
          <mxGeometry x="227.75" y="730.75" width="85" height="30" as="geometry" />
        </mxCell>
        <mxCell id="hBJA5JrjO7JEtEhDDZ1C-2" style="edgeStyle=orthogonalEdgeStyle;rounded=0;orthogonalLoop=1;jettySize=auto;html=1;exitX=0.5;exitY=1;exitDx=0;exitDy=0;entryX=0.5;entryY=0;entryDx=0;entryDy=0;" parent="1" source="SGbNxjFCH1gDrcXbBLk8-29" target="hBJA5JrjO7JEtEhDDZ1C-1" edge="1">
          <mxGeometry relative="1" as="geometry" />
        </mxCell>
        <mxCell id="SGbNxjFCH1gDrcXbBLk8-29" value="&lt;font color=&quot;#ff3333&quot;&gt;crtc_helper_funcs-&amp;gt;mode_set_nofb&lt;/font&gt;" style="text;whiteSpace=wrap;html=1;" parent="1" vertex="1">
          <mxGeometry x="171.13" y="771.25" width="198.25" height="29.5" as="geometry" />
        </mxCell>
        <mxCell id="SGbNxjFCH1gDrcXbBLk8-35" style="edgeStyle=orthogonalEdgeStyle;rounded=0;orthogonalLoop=1;jettySize=auto;html=1;exitX=0.5;exitY=1;exitDx=0;exitDy=0;entryX=0.5;entryY=0;entryDx=0;entryDy=0;" parent="1" source="SGbNxjFCH1gDrcXbBLk8-31" target="SGbNxjFCH1gDrcXbBLk8-34" edge="1">
          <mxGeometry relative="1" as="geometry" />
        </mxCell>
        <mxCell id="SGbNxjFCH1gDrcXbBLk8-31" value="disable_outputs" style="text;whiteSpace=wrap;html=1;" parent="1" vertex="1">
          <mxGeometry x="225.25" y="645.75" width="90" height="30" as="geometry" />
        </mxCell>
        <mxCell id="SGbNxjFCH1gDrcXbBLk8-36" style="edgeStyle=orthogonalEdgeStyle;rounded=0;orthogonalLoop=1;jettySize=auto;html=1;exitX=0.5;exitY=1;exitDx=0;exitDy=0;entryX=0.5;entryY=0;entryDx=0;entryDy=0;" parent="1" source="SGbNxjFCH1gDrcXbBLk8-34" target="SGbNxjFCH1gDrcXbBLk8-27" edge="1">
          <mxGeometry relative="1" as="geometry" />
        </mxCell>
        <mxCell id="SGbNxjFCH1gDrcXbBLk8-34" value="&lt;font color=&quot;#ff3333&quot;&gt;crtc_helper_funcs-&amp;gt;atomic_disable&lt;/font&gt;" style="text;whiteSpace=wrap;html=1;" parent="1" vertex="1">
          <mxGeometry x="175.69" y="690.25" width="189.12" height="29.5" as="geometry" />
        </mxCell>
        <mxCell id="gn15YKwrfAViyjrjY27p-12" style="edgeStyle=orthogonalEdgeStyle;rounded=0;orthogonalLoop=1;jettySize=auto;html=1;exitX=0.5;exitY=1;exitDx=0;exitDy=0;entryX=0.5;entryY=0;entryDx=0;entryDy=0;" parent="1" source="gn15YKwrfAViyjrjY27p-1" target="gn15YKwrfAViyjrjY27p-11" edge="1">
          <mxGeometry relative="1" as="geometry" />
        </mxCell>
        <mxCell id="gn15YKwrfAViyjrjY27p-1" value="drm_atomic_helper_commit_hw_done" style="text;whiteSpace=wrap;html=1;" parent="1" vertex="1">
          <mxGeometry x="963.25" y="600.75" width="210" height="30" as="geometry" />
        </mxCell>
        <mxCell id="gn15YKwrfAViyjrjY27p-3" value="drm_atomic_helper_wait_for_vblanks" style="text;whiteSpace=wrap;html=1;" parent="1" vertex="1">
          <mxGeometry x="1180" y="600.75" width="210" height="30" as="geometry" />
        </mxCell>
        <mxCell id="gn15YKwrfAViyjrjY27p-8" style="edgeStyle=orthogonalEdgeStyle;rounded=0;orthogonalLoop=1;jettySize=auto;html=1;exitX=0.5;exitY=1;exitDx=0;exitDy=0;entryX=0.5;entryY=0;entryDx=0;entryDy=0;" parent="1" source="gn15YKwrfAViyjrjY27p-5" target="gn15YKwrfAViyjrjY27p-7" edge="1">
          <mxGeometry relative="1" as="geometry" />
        </mxCell>
        <mxCell id="gn15YKwrfAViyjrjY27p-5" value="drm_atomic_helper_cleanup_planes" style="text;whiteSpace=wrap;html=1;" parent="1" vertex="1">
          <mxGeometry x="1390" y="600.75" width="206" height="24.25" as="geometry" />
        </mxCell>
        <mxCell id="gn15YKwrfAViyjrjY27p-14" style="edgeStyle=orthogonalEdgeStyle;rounded=0;orthogonalLoop=1;jettySize=auto;html=1;exitX=0.5;exitY=1;exitDx=0;exitDy=0;entryX=0.5;entryY=0;entryDx=0;entryDy=0;" parent="1" source="gn15YKwrfAViyjrjY27p-7" target="gn15YKwrfAViyjrjY27p-13" edge="1">
          <mxGeometry relative="1" as="geometry" />
        </mxCell>
        <mxCell id="gn15YKwrfAViyjrjY27p-7" value="&lt;font color=&quot;#ff3333&quot;&gt;&lt;span style=&quot;text-wrap: nowrap;&quot;&gt;plane_helper_funcs-&amp;gt;clean_up&lt;/span&gt;&lt;/font&gt;" style="text;html=1;align=center;verticalAlign=middle;whiteSpace=wrap;rounded=0;" parent="1" vertex="1">
          <mxGeometry x="1395.5" y="646" width="195" height="30" as="geometry" />
        </mxCell>
        <mxCell id="gn15YKwrfAViyjrjY27p-9" value="" style="endArrow=classic;html=1;rounded=0;" parent="1" edge="1">
          <mxGeometry width="50" height="50" relative="1" as="geometry">
            <mxPoint x="1310" y="420" as="sourcePoint" />
            <mxPoint x="1380" y="560" as="targetPoint" />
          </mxGeometry>
        </mxCell>
        <mxCell id="gn15YKwrfAViyjrjY27p-10" value="vblank interrupt:" style="text;html=1;align=center;verticalAlign=middle;whiteSpace=wrap;rounded=0;" parent="1" vertex="1">
          <mxGeometry x="1140" y="185" width="120" height="30" as="geometry" />
        </mxCell>
        <mxCell id="gn15YKwrfAViyjrjY27p-11" value="&lt;span style=&quot;text-wrap: nowrap;&quot;&gt;&lt;font color=&quot;#0000ff&quot;&gt;complete_all(hw_done)&lt;/font&gt;&lt;/span&gt;" style="text;html=1;align=center;verticalAlign=middle;whiteSpace=wrap;rounded=0;" parent="1" vertex="1">
          <mxGeometry x="998.62" y="645.25" width="139.25" height="30" as="geometry" />
        </mxCell>
        <mxCell id="gn15YKwrfAViyjrjY27p-13" value="&lt;span style=&quot;text-wrap: nowrap;&quot;&gt;&lt;font color=&quot;#0000ff&quot;&gt;complete_all(cleanup_done)&lt;/font&gt;&lt;/span&gt;" style="text;html=1;align=center;verticalAlign=middle;whiteSpace=wrap;rounded=0;" parent="1" vertex="1">
          <mxGeometry x="1412.88" y="690.25" width="160.25" height="30" as="geometry" />
        </mxCell>
        <mxCell id="u8S9kB2TvEzTzJiZ-Q19-1" value="&lt;font color=&quot;#b3b3b3&quot; style=&quot;font-size: 11px;&quot;&gt;执行page_plip&lt;/font&gt;" style="text;html=1;align=center;verticalAlign=middle;whiteSpace=wrap;rounded=0;" parent="1" vertex="1">
          <mxGeometry x="380" y="659.75" width="90" height="30" as="geometry" />
        </mxCell>
        <mxCell id="u8S9kB2TvEzTzJiZ-Q19-2" value="&lt;font color=&quot;#b3b3b3&quot;&gt;&lt;span style=&quot;font-size: 11px;&quot;&gt;arm/send vblank event&lt;/span&gt;&lt;/font&gt;" style="text;html=1;align=center;verticalAlign=middle;whiteSpace=wrap;rounded=0;" parent="1" vertex="1">
          <mxGeometry x="370.5" y="740.25" width="120" height="30" as="geometry" />
        </mxCell>
        <mxCell id="u8S9kB2TvEzTzJiZ-Q19-4" value="&lt;font style=&quot;font-size: 11px;&quot; color=&quot;#b3b3b3&quot;&gt;disable crtc, clk, 禁止vblank中断&lt;/font&gt;" style="text;html=1;align=center;verticalAlign=middle;resizable=0;points=[];autosize=1;strokeColor=none;fillColor=none;" parent="1" vertex="1">
          <mxGeometry x="82" y="670.75" width="180" height="30" as="geometry" />
        </mxCell>
        <mxCell id="u8S9kB2TvEzTzJiZ-Q19-5" value="&lt;font color=&quot;#b3b3b3&quot; style=&quot;font-size: 11px;&quot;&gt;使能vblank中断&lt;/font&gt;" style="text;html=1;align=center;verticalAlign=middle;whiteSpace=wrap;rounded=0;" parent="1" vertex="1">
          <mxGeometry x="674" y="629.75" width="113" height="30" as="geometry" />
        </mxCell>
        <mxCell id="hBJA5JrjO7JEtEhDDZ1C-1" value="&lt;font color=&quot;#ff3333&quot;&gt;encoder_helper_funcs-&amp;gt;atomic_mode_set&lt;/font&gt;" style="text;whiteSpace=wrap;html=1;" parent="1" vertex="1">
          <mxGeometry x="156.37" y="810.25" width="227.75" height="29.5" as="geometry" />
        </mxCell>
        <mxCell id="hBJA5JrjO7JEtEhDDZ1C-10" style="edgeStyle=orthogonalEdgeStyle;rounded=0;orthogonalLoop=1;jettySize=auto;html=1;exitX=0.5;exitY=1;exitDx=0;exitDy=0;entryX=0.5;entryY=0;entryDx=0;entryDy=0;" parent="1" source="hBJA5JrjO7JEtEhDDZ1C-4" target="hBJA5JrjO7JEtEhDDZ1C-9" edge="1">
          <mxGeometry relative="1" as="geometry" />
        </mxCell>
        <mxCell id="hBJA5JrjO7JEtEhDDZ1C-4" value="drm_mode_getconnector" style="text;whiteSpace=wrap;html=1;" parent="1" vertex="1">
          <mxGeometry x="-274.5" y="-1087" width="140" height="30" as="geometry" />
        </mxCell>
        <mxCell id="hBJA5JrjO7JEtEhDDZ1C-14" style="edgeStyle=orthogonalEdgeStyle;rounded=0;orthogonalLoop=1;jettySize=auto;html=1;exitX=0.5;exitY=1;exitDx=0;exitDy=0;entryX=0.5;entryY=0;entryDx=0;entryDy=0;" parent="1" source="hBJA5JrjO7JEtEhDDZ1C-9" target="hBJA5JrjO7JEtEhDDZ1C-13" edge="1">
          <mxGeometry relative="1" as="geometry" />
        </mxCell>
        <mxCell id="hBJA5JrjO7JEtEhDDZ1C-16" style="edgeStyle=orthogonalEdgeStyle;rounded=0;orthogonalLoop=1;jettySize=auto;html=1;exitX=0.5;exitY=1;exitDx=0;exitDy=0;entryX=0.5;entryY=0;entryDx=0;entryDy=0;" parent="1" source="hBJA5JrjO7JEtEhDDZ1C-9" target="hBJA5JrjO7JEtEhDDZ1C-15" edge="1">
          <mxGeometry relative="1" as="geometry" />
        </mxCell>
        <mxCell id="hBJA5JrjO7JEtEhDDZ1C-9" value="&lt;font color=&quot;#ff0000&quot;&gt;connector-&amp;gt;funcs-&amp;gt;fill_modes&lt;/font&gt;(drm_helper_probe_single_connector_modes)" style="text;whiteSpace=wrap;html=1;" parent="1" vertex="1">
          <mxGeometry x="-411.63" y="-1047" width="414.25" height="30" as="geometry" />
        </mxCell>
        <mxCell id="hBJA5JrjO7JEtEhDDZ1C-11" value="&lt;font color=&quot;#ff0000&quot;&gt;connector-&amp;gt;helper_funcs-&amp;gt;detect_ctx / connector-&amp;gt;funcs-&amp;gt;detect&lt;/font&gt;" style="text;whiteSpace=wrap;html=1;" parent="1" vertex="1">
          <mxGeometry x="-473.99" y="-940" width="353" height="30" as="geometry" />
        </mxCell>
        <mxCell id="hBJA5JrjO7JEtEhDDZ1C-25" style="edgeStyle=orthogonalEdgeStyle;rounded=0;orthogonalLoop=1;jettySize=auto;html=1;exitX=0.5;exitY=1;exitDx=0;exitDy=0;entryX=0.5;entryY=0;entryDx=0;entryDy=0;" parent="1" source="hBJA5JrjO7JEtEhDDZ1C-13" target="hBJA5JrjO7JEtEhDDZ1C-19" edge="1">
          <mxGeometry relative="1" as="geometry" />
        </mxCell>
        <mxCell id="hBJA5JrjO7JEtEhDDZ1C-13" value="drm_helper_probe_get_modes" style="text;whiteSpace=wrap;html=1;" parent="1" vertex="1">
          <mxGeometry x="-89.5" y="-980" width="173" height="25" as="geometry" />
        </mxCell>
        <mxCell id="hBJA5JrjO7JEtEhDDZ1C-18" style="edgeStyle=orthogonalEdgeStyle;rounded=0;orthogonalLoop=1;jettySize=auto;html=1;exitX=0.5;exitY=1;exitDx=0;exitDy=0;entryX=0.5;entryY=0;entryDx=0;entryDy=0;" parent="1" source="hBJA5JrjO7JEtEhDDZ1C-15" target="hBJA5JrjO7JEtEhDDZ1C-11" edge="1">
          <mxGeometry relative="1" as="geometry" />
        </mxCell>
        <mxCell id="hBJA5JrjO7JEtEhDDZ1C-15" value="drm_helper_probe_detect" style="text;whiteSpace=wrap;html=1;" parent="1" vertex="1">
          <mxGeometry x="-372.49" y="-980" width="150" height="30" as="geometry" />
        </mxCell>
        <mxCell id="hBJA5JrjO7JEtEhDDZ1C-26" style="edgeStyle=orthogonalEdgeStyle;rounded=0;orthogonalLoop=1;jettySize=auto;html=1;exitX=0.5;exitY=1;exitDx=0;exitDy=0;entryX=0.5;entryY=0;entryDx=0;entryDy=0;" parent="1" source="hBJA5JrjO7JEtEhDDZ1C-19" target="hBJA5JrjO7JEtEhDDZ1C-24" edge="1">
          <mxGeometry relative="1" as="geometry" />
        </mxCell>
        <mxCell id="hBJA5JrjO7JEtEhDDZ1C-19" value="&lt;font color=&quot;#ff0000&quot;&gt;connector_funcs-&amp;gt;get_modes&lt;/font&gt;&lt;div&gt;(panel_bridge_connector_get_modes)&lt;/div&gt;" style="text;whiteSpace=wrap;html=1;" parent="1" vertex="1">
          <mxGeometry x="-106.75" y="-940" width="207.5" height="40" as="geometry" />
        </mxCell>
        <mxCell id="hBJA5JrjO7JEtEhDDZ1C-23" value="&lt;font color=&quot;#999999&quot; style=&quot;font-size: 10px;&quot;&gt;针对panel bridge注册的connector&lt;/font&gt;" style="text;html=1;align=center;verticalAlign=middle;whiteSpace=wrap;rounded=0;" parent="1" vertex="1">
          <mxGeometry x="55.879999999999995" y="-950" width="134" height="30" as="geometry" />
        </mxCell>
        <mxCell id="hBJA5JrjO7JEtEhDDZ1C-28" style="edgeStyle=orthogonalEdgeStyle;rounded=0;orthogonalLoop=1;jettySize=auto;html=1;exitX=0.5;exitY=1;exitDx=0;exitDy=0;entryX=0.5;entryY=0;entryDx=0;entryDy=0;" parent="1" source="hBJA5JrjO7JEtEhDDZ1C-24" target="hBJA5JrjO7JEtEhDDZ1C-27" edge="1">
          <mxGeometry relative="1" as="geometry" />
        </mxCell>
        <mxCell id="hBJA5JrjO7JEtEhDDZ1C-24" value="drm_panel_get_modes" style="text;whiteSpace=wrap;html=1;" parent="1" vertex="1">
          <mxGeometry x="-67.75" y="-890" width="129.5" height="30" as="geometry" />
        </mxCell>
        <mxCell id="uA4xqrGlUiD7ktBMocD0-2" value="" style="edgeStyle=orthogonalEdgeStyle;rounded=0;orthogonalLoop=1;jettySize=auto;html=1;" parent="1" source="hBJA5JrjO7JEtEhDDZ1C-27" target="uA4xqrGlUiD7ktBMocD0-1" edge="1">
          <mxGeometry relative="1" as="geometry" />
        </mxCell>
        <mxCell id="hBJA5JrjO7JEtEhDDZ1C-27" value="&lt;font color=&quot;#ff0000&quot;&gt;panel-&amp;gt;funcs-&amp;gt;get_modes&lt;/font&gt;&lt;br&gt;(panel_simple_get_modes)" style="text;whiteSpace=wrap;html=1;" parent="1" vertex="1">
          <mxGeometry x="-78" y="-850" width="150" height="40" as="geometry" />
        </mxCell>
        <mxCell id="uA4xqrGlUiD7ktBMocD0-1" value="填充connector-&amp;gt;probed_modes 链表&lt;div&gt;以及 connector-&amp;gt;display_info 结构体&lt;/div&gt;" style="text;whiteSpace=wrap;html=1;" parent="1" vertex="1">
          <mxGeometry x="-106.75" y="-790" width="208" height="40" as="geometry" />
        </mxCell>
        <mxCell id="f9TDkDUysFeC1hMs-1aC-1" value="&lt;font style=&quot;font-size: 11px; color: rgb(153, 153, 153);&quot;&gt;设置app传入的要修改的property value到state&lt;/font&gt;" style="text;html=1;align=center;verticalAlign=middle;whiteSpace=wrap;rounded=0;" vertex="1" parent="1">
          <mxGeometry x="-390" y="141.25" width="239.38" height="30" as="geometry" />
        </mxCell>
      </root>
    </mxGraphModel>
  </diagram>
</mxfile>
